<svg width="100" height="100" viewBox="0 0 100 100" fill="none" xmlns="http://www.w3.org/2000/svg">
<path fill-rule="evenodd" clip-rule="evenodd" d="M15.4652 14.6983C17.7874 12.4119 21.527 12.4373 23.8177 14.7552L50 41.2478L76.1823 14.7552C78.4731 12.4373 82.2126 12.4119 84.5348 14.6983C86.8571 16.9848 86.8826 20.7174 84.5918 23.0353L58.2963 49.6425L85.2985 76.9647C87.5892 79.2826 87.5637 83.0152 85.2415 85.3017C82.9193 87.5881 79.1797 87.5627 76.889 85.2448L50 58.0371L23.111 85.2448C20.8203 87.5627 17.0807 87.5881 14.7585 85.3017C12.4363 83.0152 12.4108 79.2826 14.7015 76.9647L41.7037 49.6425L15.4082 23.0353C13.1174 20.7174 13.1429 16.9848 15.4652 14.6983Z" fill="#3A3A3A"/>
</svg>
