<svg width="74" height="74" viewBox="0 0 74 74" fill="none" xmlns="http://www.w3.org/2000/svg">
<path fill-rule="evenodd" clip-rule="evenodd" d="M2.46517 1.69834C4.7874 -0.588144 8.52695 -0.562676 10.8177 1.75522L37 28.2478L63.1823 1.75522C65.4731 -0.562676 69.2126 -0.588144 71.5348 1.69834C73.857 3.98482 73.8826 7.71741 71.5918 10.0353L45.2963 36.6425L72.2985 63.9647C74.5892 66.2826 74.5637 70.0152 72.2415 72.3017C69.9193 74.5881 66.1797 74.5627 63.889 72.2448L37 45.0371L10.111 72.2448C7.82028 74.5627 4.08072 74.5881 1.7585 72.3017C-0.563726 70.0152 -0.589241 66.2826 1.70151 63.9647L28.7037 36.6425L2.40818 10.0353C0.117433 7.71741 0.142949 3.98482 2.46517 1.69834Z" fill="#3A3A3A"/>
</svg>
