<svg width="63" height="74" viewBox="0 0 63 74" fill="none" xmlns="http://www.w3.org/2000/svg">
<path d="M60.75 4.62502H43.875L42.5531 1.92229C42.2731 1.34447 41.8418 0.858429 41.3076 0.518832C40.7735 0.179236 40.1578 -0.000437635 39.5297 2.53403e-05H23.4563C22.8296 -0.00245056 22.2149 0.176553 21.6827 0.516527C21.1505 0.856502 20.7222 1.3437 20.4469 1.92229L19.125 4.62502H2.25C1.65326 4.62502 1.08097 4.86866 0.65901 5.30234C0.237053 5.73602 0 6.32421 0 6.93752L0 11.5625C0 12.1758 0.237053 12.764 0.65901 13.1977C1.08097 13.6314 1.65326 13.875 2.25 13.875H60.75C61.3467 13.875 61.919 13.6314 62.341 13.1977C62.7629 12.764 63 12.1758 63 11.5625V6.93752C63 6.32421 62.7629 5.73602 62.341 5.30234C61.919 4.86866 61.3467 4.62502 60.75 4.62502ZM7.48125 67.4961C7.58856 69.2574 8.34491 70.9104 9.59633 72.1187C10.8477 73.327 12.5002 73.9998 14.2172 74H48.7828C50.4998 73.9998 52.1523 73.327 53.4037 72.1187C54.6551 70.9104 55.4114 69.2574 55.5187 67.4961L58.5 18.5H4.5L7.48125 67.4961Z" fill="#3A3A3A"/>
</svg>
