<svg width="100" height="100" viewBox="0 0 100 100" fill="none" xmlns="http://www.w3.org/2000/svg">
<path d="M79.75 17.625H62.875L61.5531 14.9223C61.2731 14.3445 60.8418 13.8584 60.3076 13.5188C59.7735 13.1792 59.1578 12.9996 58.5297 13H42.4563C41.8296 12.9975 41.2149 13.1766 40.6827 13.5165C40.1505 13.8565 39.7222 14.3437 39.4469 14.9223L38.125 17.625H21.25C20.6533 17.625 20.081 17.8687 19.659 18.3023C19.2371 18.736 19 19.3242 19 19.9375V24.5625C19 25.1758 19.2371 25.764 19.659 26.1977C20.081 26.6314 20.6533 26.875 21.25 26.875H79.75C80.3467 26.875 80.919 26.6314 81.341 26.1977C81.7629 25.764 82 25.1758 82 24.5625V19.9375C82 19.3242 81.7629 18.736 81.341 18.3023C80.919 17.8687 80.3467 17.625 79.75 17.625V17.625ZM26.4812 80.4961C26.5886 82.2574 27.3449 83.9104 28.5963 85.1187C29.8477 86.327 31.5002 86.9998 33.2172 87H67.7828C69.4998 86.9998 71.1523 86.327 72.4037 85.1187C73.6551 83.9104 74.4114 82.2574 74.5187 80.4961L77.5 31.5H23.5L26.4812 80.4961Z" fill="#3A3A3A"/>
</svg>
