<svg width="95" height="74" viewBox="0 0 95 74" fill="none" xmlns="http://www.w3.org/2000/svg">
<path d="M46.2405 19.1975L15.8346 44.2827V71.3568C15.8346 72.0579 16.1126 72.7302 16.6074 73.2258C17.1023 73.7215 17.7734 74 18.4733 74L36.954 73.9521C37.6515 73.9486 38.3193 73.6686 38.8113 73.1733C39.3033 72.678 39.5795 72.0077 39.5795 71.3089V55.4979C39.5795 54.7969 39.8575 54.1246 40.3523 53.6289C40.8472 53.1333 41.5183 52.8548 42.2181 52.8548H52.7729C53.4727 52.8548 54.1439 53.1333 54.6387 53.6289C55.1336 54.1246 55.4116 54.7969 55.4116 55.4979V71.2974C55.4105 71.6452 55.4779 71.9898 55.6101 72.3114C55.7422 72.633 55.9364 72.9254 56.1815 73.1717C56.4266 73.418 56.7179 73.6135 57.0386 73.7468C57.3592 73.8802 57.703 73.9488 58.0503 73.9488L76.5244 74C77.2242 74 77.8953 73.7215 78.3902 73.2258C78.885 72.7302 79.163 72.0579 79.163 71.3568V44.2645L48.7637 19.1975C48.4064 18.909 47.9611 18.7516 47.5021 18.7516C47.0431 18.7516 46.5979 18.909 46.2405 19.1975V19.1975ZM94.2695 36.2475L80.4824 24.8638V1.98236C80.4824 1.45661 80.2739 0.952387 79.9027 0.580621C79.5316 0.208856 79.0282 0 78.5034 0H69.268C68.7431 0 68.2397 0.208856 67.8686 0.580621C67.4975 0.952387 67.289 1.45661 67.289 1.98236V13.9773L52.5239 1.80891C51.1069 0.64093 49.3289 0.0023348 47.4939 0.0023348C45.6588 0.0023348 43.8808 0.64093 42.4639 1.80891L0.718215 36.2475C0.517819 36.4134 0.352024 36.6173 0.230301 36.8474C0.108578 37.0775 0.0333147 37.3294 0.00881017 37.5887C-0.0156943 37.8479 0.0110407 38.1095 0.0874876 38.3584C0.163935 38.6073 0.288595 38.8387 0.454347 39.0394L4.65975 44.1605C4.82505 44.3618 5.02837 44.5285 5.25807 44.651C5.48777 44.7736 5.73934 44.8495 5.99838 44.8745C6.25741 44.8995 6.51883 44.8731 6.76767 44.7968C7.0165 44.7205 7.24786 44.5957 7.44851 44.4297L46.2405 12.4245C46.5979 12.1359 47.0431 11.9786 47.5021 11.9786C47.9611 11.9786 48.4064 12.1359 48.7637 12.4245L87.5574 44.4297C87.7577 44.5958 87.9887 44.7206 88.2372 44.7972C88.4856 44.8738 88.7468 44.9006 89.0056 44.876C89.2644 44.8515 89.5159 44.7761 89.7456 44.6542C89.9754 44.5322 90.1788 44.3662 90.3445 44.1654L94.5499 39.0443C94.7155 38.8425 94.8396 38.6099 94.9151 38.3599C94.9907 38.1099 95.0162 37.8474 94.9901 37.5875C94.9641 37.3276 94.887 37.0755 94.7633 36.8455C94.6397 36.6155 94.4718 36.4123 94.2695 36.2475V36.2475Z" fill="#3A3A3A"/>
</svg>
