<svg width="306" height="75" viewBox="0 0 306 75" fill="none" xmlns="http://www.w3.org/2000/svg">
<path d="M74.6064 0L89.1639 74.6068L113.73 74.6068L87.3442 2.23709e-06L74.6064 0Z" fill="url(#paint0_linear)"/>
<path d="M60.0498 14.5571L62.7793 74.6065L78.2466 74.6065L70.9679 14.5571L60.0498 14.5571Z" fill="url(#paint1_linear)"/>
<path d="M45.4916 29.1147L43.6719 74.6067L58.2293 74.6067L56.4096 29.1147L45.4916 29.1147Z" fill="url(#paint2_linear)"/>
<path d="M25.4753 45.4917L21.8359 74.6065L36.3934 74.6065L38.213 45.4917L25.4753 45.4917Z" fill="url(#paint3_linear)"/>
<path d="M5.45903 60.0493L-9.4938e-08 74.6067L16.3771 74.6067L18.1968 60.0493L5.45903 60.0493Z" fill="url(#paint4_linear)"/>
<path d="M134.196 30.9345V7.84277H143.335C145.824 7.84277 147.724 8.44327 149.034 9.64425C150.366 10.8452 151.032 12.5594 151.032 14.7867C151.032 16.9921 150.366 18.7062 149.034 19.9291C147.724 21.1301 145.824 21.7306 143.335 21.7306H136.882V30.9345H134.196ZM136.882 19.4705H143.007C146.588 19.4705 148.379 17.9092 148.379 14.7867C148.379 11.6423 146.588 10.0701 143.007 10.0701H136.882V19.4705Z" fill="black"/>
<path d="M156.397 36.8302L159.116 30.6724L152.401 15.0159H155.284L160.557 27.9211L165.863 15.0159H168.648L159.182 36.8302H156.397Z" fill="black"/>
<path d="M171.388 30.9345V15.0159H173.976V17.8656C174.827 15.944 176.574 14.8849 179.216 14.6884L180.166 14.5901L180.363 16.8829L178.692 17.0795C177.186 17.2105 176.039 17.6909 175.253 18.5206C174.467 19.3286 174.074 20.4422 174.074 21.8616V30.9345H171.388Z" fill="black"/>
<path d="M187.979 31.2293C186.887 31.2293 185.904 31.0218 185.031 30.6069C184.179 30.1702 183.502 29.5806 183 28.8382C182.498 28.0958 182.247 27.266 182.247 26.3489C182.247 25.1916 182.541 24.2745 183.131 23.5975C183.742 22.9206 184.736 22.4402 186.112 22.1564C187.509 21.8507 189.409 21.6978 191.811 21.6978H192.859V20.6824C192.859 19.3286 192.575 18.3569 192.007 17.7673C191.462 17.1559 190.577 16.8502 189.354 16.8502C188.394 16.8502 187.466 16.9921 186.57 17.276C185.675 17.538 184.758 17.9747 183.819 18.5862L182.902 16.6537C183.732 16.0641 184.736 15.5946 185.915 15.2452C187.116 14.8958 188.263 14.7212 189.354 14.7212C191.407 14.7212 192.925 15.2234 193.907 16.2278C194.912 17.2323 195.414 18.7936 195.414 20.9117V30.9345H192.925V28.1831C192.51 29.1221 191.866 29.8645 190.992 30.4104C190.14 30.9563 189.136 31.2293 187.979 31.2293ZM188.404 29.2313C189.715 29.2313 190.785 28.7836 191.614 27.8883C192.444 26.9712 192.859 25.8139 192.859 24.4164V23.4338H191.844C190.075 23.4338 188.677 23.5211 187.651 23.6958C186.647 23.8487 185.937 24.1325 185.522 24.5474C185.129 24.9405 184.933 25.4864 184.933 26.1851C184.933 27.0804 185.238 27.8119 185.85 28.3797C186.483 28.9474 187.335 29.2313 188.404 29.2313Z" fill="black"/>
<path d="M200.401 30.9345V15.0159H202.989V17.7018C203.469 16.741 204.135 16.0095 204.987 15.5073C205.839 14.9832 206.832 14.7212 207.968 14.7212C210.457 14.7212 212.051 15.802 212.75 17.9638C213.23 16.9594 213.94 16.1733 214.879 15.6055C215.818 15.0159 216.899 14.7212 218.121 14.7212C221.659 14.7212 223.428 16.8174 223.428 21.01V30.9345H220.775V21.141C220.775 19.678 220.513 18.608 219.988 17.9311C219.486 17.2323 218.646 16.8829 217.466 16.8829C216.178 16.8829 215.152 17.3415 214.388 18.2586C213.623 19.1757 213.241 20.3985 213.241 21.9271V30.9345H210.588V21.141C210.588 19.678 210.326 18.608 209.802 17.9311C209.3 17.2323 208.459 16.8829 207.28 16.8829C205.97 16.8829 204.932 17.3415 204.168 18.2586C203.426 19.1757 203.055 20.3985 203.055 21.9271V30.9345H200.401Z" fill="black"/>
<path d="M228.061 11.0527V8.07205H231.336V11.0527H228.061ZM228.388 30.9345V15.0159H231.041V30.9345H228.388Z" fill="black"/>
<path d="M242.06 31.2293C240.641 31.2293 239.396 30.8908 238.326 30.2139C237.278 29.537 236.459 28.5871 235.87 27.3643C235.302 26.1196 235.018 24.6566 235.018 22.9752C235.018 21.272 235.302 19.809 235.87 18.5862C236.459 17.3415 237.278 16.3916 238.326 15.7365C239.396 15.0596 240.641 14.7212 242.06 14.7212C243.305 14.7212 244.397 14.9941 245.336 15.54C246.297 16.0859 247.006 16.8393 247.465 17.8V7.84277H250.118V30.9345H247.53V28.0194C247.072 29.0238 246.362 29.8099 245.401 30.3777C244.441 30.9454 243.327 31.2293 242.06 31.2293ZM242.617 29.1002C244.102 29.1002 245.292 28.5762 246.187 27.528C247.083 26.4581 247.53 24.9405 247.53 22.9752C247.53 20.9881 247.083 19.4705 246.187 18.4224C245.292 17.3742 244.102 16.8502 242.617 16.8502C241.111 16.8502 239.91 17.3742 239.014 18.4224C238.141 19.4705 237.704 20.9881 237.704 22.9752C237.704 24.9405 238.141 26.4581 239.014 27.528C239.91 28.5762 241.111 29.1002 242.617 29.1002Z" fill="black"/>
<path d="M146.916 74.6068L136.129 43.8179H139.885L148.576 69.3661L157.485 43.8179H160.367L169.189 69.5845L178.054 43.8179H181.635L170.848 74.6068H167.66L158.882 49.2769L150.017 74.6068H146.916Z" fill="black"/>
<path d="M192.466 74.9999C190.399 74.9999 188.608 74.5486 187.094 73.646C185.58 72.7435 184.401 71.477 183.557 69.8465C182.741 68.187 182.334 66.2363 182.334 63.9945C182.334 61.7526 182.741 59.8165 183.557 58.186C184.401 56.5265 185.58 55.2454 187.094 54.3429C188.608 53.4403 190.399 52.989 192.466 52.989C194.504 52.989 196.28 53.4403 197.794 54.3429C199.337 55.2454 200.516 56.5265 201.331 58.186C202.176 59.8165 202.598 61.7526 202.598 63.9945C202.598 66.2363 202.176 68.187 201.331 69.8465C200.516 71.477 199.337 72.7435 197.794 73.646C196.28 74.5486 194.504 74.9999 192.466 74.9999ZM192.466 72.1612C194.446 72.1612 196.032 71.4624 197.226 70.0649C198.42 68.6383 199.017 66.6148 199.017 63.9945C199.017 61.345 198.42 59.3215 197.226 57.924C196.032 56.5265 194.446 55.8277 192.466 55.8277C190.457 55.8277 188.856 56.5265 187.662 57.924C186.497 59.3215 185.915 61.345 185.915 63.9945C185.915 66.6148 186.497 68.6383 187.662 70.0649C188.856 71.4624 190.457 72.1612 192.466 72.1612Z" fill="black"/>
<path d="M207.911 74.6068V53.3821H211.361V57.1816C212.497 54.6195 214.826 53.2074 218.349 52.9454L219.615 52.8144L219.877 55.8714L217.65 56.1335C215.641 56.3081 214.113 56.9487 213.064 58.055C212.016 59.1323 211.492 60.6171 211.492 62.5096V74.6068H207.911Z" fill="black"/>
<path d="M223.563 74.6068V43.8179H227.101V62.8153H227.188L237.014 53.3821H241.512L230.856 63.6014L242.43 74.6068H237.931L227.188 64.6495H227.101V74.6068H223.563Z" fill="black"/>
<path d="M253.667 74.9999C251.599 74.9999 249.809 74.5486 248.295 73.646C246.781 72.7435 245.602 71.477 244.758 69.8465C243.942 68.187 243.535 66.2363 243.535 63.9945C243.535 61.7526 243.942 59.8165 244.758 58.186C245.602 56.5265 246.781 55.2454 248.295 54.3429C249.809 53.4403 251.599 52.989 253.667 52.989C255.705 52.989 257.481 53.4403 258.995 54.3429C260.538 55.2454 261.717 56.5265 262.532 58.186C263.376 59.8165 263.799 61.7526 263.799 63.9945C263.799 66.2363 263.376 68.187 262.532 69.8465C261.717 71.477 260.538 72.7435 258.995 73.646C257.481 74.5486 255.705 74.9999 253.667 74.9999ZM253.667 72.1612C255.646 72.1612 257.233 71.4624 258.427 70.0649C259.621 68.6383 260.217 66.6148 260.217 63.9945C260.217 61.345 259.621 59.3215 258.427 57.924C257.233 56.5265 255.646 55.8277 253.667 55.8277C251.658 55.8277 250.056 56.5265 248.863 57.924C247.698 59.3215 247.116 61.345 247.116 63.9945C247.116 66.6148 247.698 68.6383 248.863 70.0649C250.056 71.4624 251.658 72.1612 253.667 72.1612Z" fill="black"/>
<path d="M276.624 74.9999C271.529 74.9999 268.981 72.1903 268.981 66.5711V53.3821H272.518V66.5274C272.518 68.4199 272.897 69.8174 273.654 70.72C274.44 71.6225 275.663 72.0738 277.322 72.0738C279.127 72.0738 280.598 71.477 281.733 70.2833C282.869 69.0604 283.436 67.4446 283.436 65.4356V53.3821H286.974V74.6068H283.524V71.0257C282.854 72.3067 281.908 73.2966 280.685 73.9954C279.491 74.665 278.138 74.9999 276.624 74.9999Z" fill="black"/>
<path d="M302.108 74.9999C299.605 74.9999 297.727 74.3448 296.475 73.0346C295.223 71.6953 294.597 69.7738 294.597 67.2699V56.1335H290.448V53.3821H294.597V46.8749H298.134V53.3821H304.86V56.1335H298.134V66.9205C298.134 68.58 298.484 69.8465 299.182 70.72C299.881 71.5643 301.017 71.9865 302.589 71.9865C303.055 71.9865 303.52 71.9283 303.986 71.8118C304.452 71.6953 304.874 71.5789 305.253 71.4624L305.864 74.1701C305.486 74.3739 304.933 74.5631 304.205 74.7378C303.477 74.9125 302.778 74.9999 302.108 74.9999Z" fill="black"/>
<defs>
<linearGradient id="paint0_linear" x1="110.935" y1="4.85519e-06" x2="106.998" y2="76.2787" gradientUnits="userSpaceOnUse">
<stop stop-color="#D60000"/>
<stop offset="1" stop-color="#A30202"/>
</linearGradient>
<linearGradient id="paint1_linear" x1="76.9468" y1="14.5571" x2="71.4918" y2="75.6285" gradientUnits="userSpaceOnUse">
<stop stop-color="#707070"/>
<stop offset="1" stop-color="#2C2C2C"/>
</linearGradient>
<linearGradient id="paint2_linear" x1="57.1895" y1="29.1147" x2="53.2729" y2="75.4188" gradientUnits="userSpaceOnUse">
<stop stop-color="#8B8B8B"/>
<stop offset="1"/>
</linearGradient>
<linearGradient id="paint3_linear" x1="37.0432" y1="45.4917" x2="35.6104" y2="75.2694" gradientUnits="userSpaceOnUse">
<stop stop-color="#8C8C8C"/>
<stop offset="1"/>
</linearGradient>
<linearGradient id="paint4_linear" x1="16.897" y1="60.0493" x2="16.574" y2="74.9656" gradientUnits="userSpaceOnUse">
<stop stop-color="#A0A0A0"/>
<stop offset="1"/>
</linearGradient>
</defs>
</svg>
