<svg width="100" height="100" viewBox="0 0 100 100" fill="none" xmlns="http://www.w3.org/2000/svg">
<path d="M89.8125 25.2088H53.0625L40.8125 13H10.1875C5.11332 13 1 17.0995 1 22.1566V77.096C1 82.1531 5.11332 86.2525 10.1875 86.2525H89.8125C94.8867 86.2525 99 82.1531 99 77.096V34.3653C99 29.3082 94.8867 25.2088 89.8125 25.2088ZM71.4375 57.2567C71.4375 58.9431 70.067 60.3089 68.375 60.3089H54.5938V74.0438C54.5938 75.7301 53.2233 77.096 51.5312 77.096H48.4688C46.7767 77.096 45.4062 75.7301 45.4062 74.0438V60.3089H31.625C29.933 60.3089 28.5625 58.9431 28.5625 57.2567V54.2045C28.5625 52.5182 29.933 51.1524 31.625 51.1524H45.4062V37.4175C45.4062 35.7312 46.7767 34.3653 48.4688 34.3653H51.5312C53.2233 34.3653 54.5938 35.7312 54.5938 37.4175V51.1524H68.375C70.067 51.1524 71.4375 52.5182 71.4375 54.2045V57.2567Z" fill="#3A3A3A"/>
</svg>
