<svg width="99" height="74" viewBox="0 0 99 74" fill="none" xmlns="http://www.w3.org/2000/svg">
<path d="M89.7188 12.3333H52.5938L40.2188 0H9.28125C4.15529 0 0 4.1413 0 9.25V64.75C0 69.8587 4.15529 74 9.28125 74H89.7188C94.8447 74 99 69.8587 99 64.75V21.5833C99 16.4746 94.8447 12.3333 89.7188 12.3333ZM71.1562 44.7083C71.1562 46.4119 69.7718 47.7917 68.0625 47.7917H54.1406V61.6667C54.1406 63.3702 52.7562 64.75 51.0469 64.75H47.9531C46.2438 64.75 44.8594 63.3702 44.8594 61.6667V47.7917H30.9375C29.2282 47.7917 27.8438 46.4119 27.8438 44.7083V41.625C27.8438 39.9215 29.2282 38.5417 30.9375 38.5417H44.8594V24.6667C44.8594 22.9631 46.2438 21.5833 47.9531 21.5833H51.0469C52.7562 21.5833 54.1406 22.9631 54.1406 24.6667V38.5417H68.0625C69.7718 38.5417 71.1562 39.9215 71.1562 41.625V44.7083Z" fill="#3A3A3A"/>
</svg>
