<svg width="416" height="434" viewBox="0 0 416 434" fill="none" xmlns="http://www.w3.org/2000/svg">
<g filter="url(#filter0_d)">
<rect width="408" height="426" fill="white"/>
<rect x="0.5" y="0.5" width="407" height="425" stroke="#C6C6C6"/>
</g>
<rect x="209" y="71" width="174" height="12" transform="rotate(90 209 71)" fill="#E8E8E8"/>
<rect width="157" height="11" transform="matrix(-1.11093e-08 1 1 1.7199e-07 181 88)" fill="#E8E8E8"/>
<rect x="227" y="88" width="157" height="13" transform="rotate(90 227 88)" fill="#E8E8E8"/>
<rect width="140" height="14" transform="matrix(-1.11093e-08 1 1 1.7199e-07 162 105)" fill="#E8E8E8"/>
<rect x="246" y="105" width="140" height="14" transform="rotate(90 246 105)" fill="#E8E8E8"/>
<rect width="121" height="14" transform="matrix(-1.12095e-08 1 1 1.70453e-07 144 124)" fill="#E8E8E8"/>
<rect x="264" y="124" width="121" height="14" transform="rotate(90 264 124)" fill="#E8E8E8"/>
<rect width="104" height="15" transform="matrix(-1.0976e-08 1 1 1.74078e-07 125 141)" fill="#E8E8E8"/>
<rect x="281" y="141" width="104" height="13" transform="rotate(90 281 141)" fill="#E8E8E8"/>
<rect width="87" height="14" transform="matrix(-1.08792e-08 1 1 1.75627e-07 107 158)" fill="#474747"/>
<rect x="300" y="158" width="87" height="15" transform="rotate(90 300 158)" fill="#E8E8E8"/>
<rect width="70" height="12" transform="matrix(-1.0749e-08 1 1 1.77754e-07 90 175)" fill="#474747"/>
<rect x="317" y="175" width="70" height="13" transform="rotate(90 317 175)" fill="#E8E8E8"/>
<rect width="53" height="13" transform="matrix(-1.11447e-08 1 1 1.71444e-07 72 192)" fill="#474747"/>
<rect x="336" y="192" width="53" height="14" transform="rotate(90 336 192)" fill="#E8E8E8"/>
<rect width="34" height="13" transform="matrix(-1.19306e-08 1 1 1.60149e-07 54 211)" fill="#474747"/>
<rect x="353" y="211" width="34" height="13" transform="rotate(90 353 211)" fill="#E8E8E8"/>
<rect width="17" height="14" transform="matrix(-6.52162e-09 1 1 2.92977e-07 36 228)" fill="#474747"/>
<rect x="371" y="228" width="17" height="14" transform="rotate(90 371 228)" fill="#E8E8E8"/>
<path d="M37.218 45V35.13H41.124C42.188 35.13 43 35.3867 43.56 35.9C44.1293 36.4133 44.414 37.146 44.414 38.098C44.414 39.0407 44.1293 39.7733 43.56 40.296C43 40.8093 42.188 41.066 41.124 41.066H38.366V45H37.218ZM38.366 40.1H40.984C42.5147 40.1 43.28 39.4327 43.28 38.098C43.28 36.754 42.5147 36.082 40.984 36.082H38.366V40.1ZM48.2493 45.126C46.616 45.126 45.7993 44.2253 45.7993 42.424V38.196H46.9333V42.41C46.9333 43.0167 47.0547 43.4647 47.2973 43.754C47.5493 44.0433 47.9413 44.188 48.4733 44.188C49.052 44.188 49.5233 43.9967 49.8873 43.614C50.2513 43.222 50.4333 42.704 50.4333 42.06V38.196H51.5673V45H50.4613V43.852C50.2467 44.2627 49.9433 44.58 49.5513 44.804C49.1687 45.0187 48.7347 45.126 48.2493 45.126ZM55.985 45.126C55.453 45.126 54.949 45.0513 54.473 44.902C53.997 44.7527 53.605 44.5427 53.297 44.272L53.661 43.474C53.997 43.7447 54.3657 43.9453 54.767 44.076C55.1777 44.1973 55.593 44.258 56.013 44.258C56.545 44.258 56.9463 44.16 57.217 43.964C57.4877 43.768 57.623 43.502 57.623 43.166C57.623 42.9047 57.5343 42.6993 57.357 42.55C57.1797 42.3913 56.8997 42.27 56.517 42.186L55.243 41.906C54.0857 41.654 53.507 41.0567 53.507 40.114C53.507 39.498 53.7497 39.0033 54.235 38.63C54.7297 38.2567 55.3737 38.07 56.167 38.07C56.6337 38.07 57.077 38.1447 57.497 38.294C57.9263 38.434 58.281 38.644 58.561 38.924L58.183 39.722C57.9123 39.47 57.595 39.2787 57.231 39.148C56.8763 39.008 56.5217 38.938 56.167 38.938C55.6443 38.938 55.2477 39.0407 54.977 39.246C54.7063 39.4513 54.571 39.722 54.571 40.058C54.571 40.5807 54.9163 40.9167 55.607 41.066L56.881 41.332C57.4783 41.4627 57.931 41.6727 58.239 41.962C58.547 42.242 58.701 42.6247 58.701 43.11C58.701 43.7353 58.4537 44.23 57.959 44.594C57.4643 44.9487 56.8063 45.126 55.985 45.126ZM60.4292 45V35.13H61.5632V39.316C61.7872 38.9053 62.0999 38.5973 62.5012 38.392C62.9119 38.1773 63.3692 38.07 63.8732 38.07C65.4879 38.07 66.2952 38.966 66.2952 40.758V45H65.1612V40.828C65.1612 40.1933 65.0352 39.7313 64.7832 39.442C64.5406 39.1433 64.1486 38.994 63.6072 38.994C62.9819 38.994 62.4826 39.19 62.1092 39.582C61.7452 39.9647 61.5632 40.478 61.5632 41.122V45H60.4292ZM68.3303 41.738V40.8H72.2503V41.738H68.3303ZM76.7279 45.126C75.0945 45.126 74.2779 44.2253 74.2779 42.424V38.196H75.4119V42.41C75.4119 43.0167 75.5332 43.4647 75.7759 43.754C76.0279 44.0433 76.4199 44.188 76.9519 44.188C77.5305 44.188 78.0019 43.9967 78.3659 43.614C78.7299 43.222 78.9119 42.704 78.9119 42.06V38.196H80.0459V45H78.9399V43.852C78.7252 44.2627 78.4219 44.58 78.0299 44.804C77.6472 45.0187 77.2132 45.126 76.7279 45.126ZM82.1675 47.52V38.196H83.2735V39.414C83.4788 38.994 83.7822 38.6673 84.1835 38.434C84.5942 38.1913 85.0702 38.07 85.6115 38.07C86.2182 38.07 86.7455 38.2147 87.1935 38.504C87.6508 38.784 88.0008 39.19 88.2435 39.722C88.4955 40.2447 88.6215 40.87 88.6215 41.598C88.6215 42.3167 88.4955 42.942 88.2435 43.474C88.0008 43.9967 87.6508 44.4027 87.1935 44.692C86.7455 44.9813 86.2182 45.126 85.6115 45.126C85.0888 45.126 84.6222 45.0093 84.2115 44.776C83.8008 44.5427 83.4975 44.2207 83.3015 43.81V47.52H82.1675ZM85.3735 44.216C86.0082 44.216 86.5168 43.992 86.8995 43.544C87.2822 43.0867 87.4735 42.438 87.4735 41.598C87.4735 40.7487 87.2822 40.1 86.8995 39.652C86.5168 39.204 86.0082 38.98 85.3735 38.98C84.7388 38.98 84.2302 39.204 83.8475 39.652C83.4648 40.1 83.2735 40.7487 83.2735 41.598C83.2735 42.438 83.4648 43.0867 83.8475 43.544C84.2302 43.992 84.7388 44.216 85.3735 44.216ZM92.6256 45.126C92.0936 45.126 91.5896 45.0513 91.1136 44.902C90.6376 44.7527 90.2456 44.5427 89.9376 44.272L90.3016 43.474C90.6376 43.7447 91.0063 43.9453 91.4076 44.076C91.8183 44.1973 92.2336 44.258 92.6536 44.258C93.1856 44.258 93.587 44.16 93.8576 43.964C94.1283 43.768 94.2636 43.502 94.2636 43.166C94.2636 42.9047 94.175 42.6993 93.9976 42.55C93.8203 42.3913 93.5403 42.27 93.1576 42.186L91.8836 41.906C90.7263 41.654 90.1476 41.0567 90.1476 40.114C90.1476 39.498 90.3903 39.0033 90.8756 38.63C91.3703 38.2567 92.0143 38.07 92.8076 38.07C93.2743 38.07 93.7176 38.1447 94.1376 38.294C94.567 38.434 94.9216 38.644 95.2016 38.924L94.8236 39.722C94.553 39.47 94.2356 39.2787 93.8716 39.148C93.517 39.008 93.1623 38.938 92.8076 38.938C92.285 38.938 91.8883 39.0407 91.6176 39.246C91.347 39.4513 91.2116 39.722 91.2116 40.058C91.2116 40.5807 91.557 40.9167 92.2476 41.066L93.5216 41.332C94.119 41.4627 94.5716 41.6727 94.8796 41.962C95.1876 42.242 95.3416 42.6247 95.3416 43.11C95.3416 43.7353 95.0943 44.23 94.5996 44.594C94.105 44.9487 93.447 45.126 92.6256 45.126ZM102.738 47.688C102.14 46.6613 101.706 45.6207 101.436 44.566C101.165 43.502 101.03 42.4193 101.03 41.318C101.03 40.2167 101.165 39.1387 101.436 38.084C101.706 37.0293 102.14 35.984 102.738 34.948L103.55 35.256C103.102 36.3013 102.77 37.3187 102.556 38.308C102.341 39.288 102.234 40.2913 102.234 41.318C102.234 42.3447 102.341 43.3527 102.556 44.342C102.77 45.322 103.102 46.3347 103.55 47.38L102.738 47.688ZM105.109 45V38.196H106.215V39.414C106.579 38.5927 107.326 38.14 108.455 38.056L108.861 38.014L108.945 38.994L108.231 39.078C107.587 39.134 107.097 39.3393 106.761 39.694C106.425 40.0393 106.257 40.5153 106.257 41.122V45H105.109ZM113.11 45.126C112.037 45.126 111.188 44.8133 110.562 44.188C109.937 43.5533 109.624 42.6947 109.624 41.612C109.624 40.912 109.764 40.296 110.044 39.764C110.324 39.2227 110.707 38.8073 111.192 38.518C111.687 38.2193 112.256 38.07 112.9 38.07C113.824 38.07 114.548 38.3687 115.07 38.966C115.593 39.554 115.854 40.366 115.854 41.402V41.836H110.73C110.768 42.6107 110.992 43.2033 111.402 43.614C111.813 44.0153 112.382 44.216 113.11 44.216C113.521 44.216 113.913 44.1553 114.286 44.034C114.66 43.9033 115.014 43.6933 115.35 43.404L115.742 44.202C115.434 44.4913 115.042 44.72 114.566 44.888C114.09 45.0467 113.605 45.126 113.11 45.126ZM112.928 38.91C112.284 38.91 111.776 39.1107 111.402 39.512C111.029 39.9133 110.81 40.4407 110.744 41.094H114.874C114.846 40.4033 114.664 39.8667 114.328 39.484C114.002 39.1013 113.535 38.91 112.928 38.91ZM117.496 47.52V38.196H118.602V39.414C118.807 38.994 119.11 38.6673 119.512 38.434C119.922 38.1913 120.398 38.07 120.94 38.07C121.546 38.07 122.074 38.2147 122.522 38.504C122.979 38.784 123.329 39.19 123.572 39.722C123.824 40.2447 123.95 40.87 123.95 41.598C123.95 42.3167 123.824 42.942 123.572 43.474C123.329 43.9967 122.979 44.4027 122.522 44.692C122.074 44.9813 121.546 45.126 120.94 45.126C120.417 45.126 119.95 45.0093 119.54 44.776C119.129 44.5427 118.826 44.2207 118.63 43.81V47.52H117.496ZM120.702 44.216C121.336 44.216 121.845 43.992 122.228 43.544C122.61 43.0867 122.802 42.438 122.802 41.598C122.802 40.7487 122.61 40.1 122.228 39.652C121.845 39.204 121.336 38.98 120.702 38.98C120.067 38.98 119.558 39.204 119.176 39.652C118.793 40.1 118.602 40.7487 118.602 41.598C118.602 42.438 118.793 43.0867 119.176 43.544C119.558 43.992 120.067 44.216 120.702 44.216ZM127.954 45.126C127.422 45.126 126.918 45.0513 126.442 44.902C125.966 44.7527 125.574 44.5427 125.266 44.272L125.63 43.474C125.966 43.7447 126.334 43.9453 126.736 44.076C127.146 44.1973 127.562 44.258 127.982 44.258C128.514 44.258 128.915 44.16 129.186 43.964C129.456 43.768 129.592 43.502 129.592 43.166C129.592 42.9047 129.503 42.6993 129.326 42.55C129.148 42.3913 128.868 42.27 128.486 42.186L127.212 41.906C126.054 41.654 125.476 41.0567 125.476 40.114C125.476 39.498 125.718 39.0033 126.204 38.63C126.698 38.2567 127.342 38.07 128.136 38.07C128.602 38.07 129.046 38.1447 129.466 38.294C129.895 38.434 130.25 38.644 130.53 38.924L130.152 39.722C129.881 39.47 129.564 39.2787 129.2 39.148C128.845 39.008 128.49 38.938 128.136 38.938C127.613 38.938 127.216 39.0407 126.946 39.246C126.675 39.4513 126.54 39.722 126.54 40.058C126.54 40.5807 126.885 40.9167 127.576 41.066L128.85 41.332C129.447 41.4627 129.9 41.6727 130.208 41.962C130.516 42.242 130.67 42.6247 130.67 43.11C130.67 43.7353 130.422 44.23 129.928 44.594C129.433 44.9487 128.775 45.126 127.954 45.126ZM132.636 47.688L131.824 47.38C132.272 46.3253 132.599 45.308 132.804 44.328C133.019 43.3387 133.126 42.3353 133.126 41.318C133.126 40.3007 133.019 39.302 132.804 38.322C132.599 37.3327 132.272 36.3107 131.824 35.256L132.636 34.948C133.233 35.984 133.667 37.0293 133.938 38.084C134.209 39.1387 134.344 40.2167 134.344 41.318C134.344 42.4193 134.209 43.502 133.938 44.566C133.667 45.6207 133.233 46.6613 132.636 47.688ZM151.42 45V44.132L154.794 40.492C155.27 39.9693 155.611 39.4933 155.816 39.064C156.031 38.6347 156.138 38.196 156.138 37.748C156.138 36.6 155.471 36.026 154.136 36.026C153.137 36.026 152.255 36.3993 151.49 37.146L151.056 36.25C151.42 35.8767 151.882 35.578 152.442 35.354C153.011 35.1207 153.609 35.004 154.234 35.004C155.223 35.004 155.979 35.2373 156.502 35.704C157.034 36.1613 157.3 36.8147 157.3 37.664C157.3 38.252 157.155 38.8307 156.866 39.4C156.577 39.96 156.133 40.5573 155.536 41.192L152.89 44.02H157.706V45H151.42ZM162.755 45.126C161.625 45.126 160.767 44.692 160.179 43.824C159.591 42.956 159.297 41.7007 159.297 40.058C159.297 38.406 159.591 37.1507 160.179 36.292C160.767 35.4333 161.625 35.004 162.755 35.004C163.893 35.004 164.752 35.4333 165.331 36.292C165.919 37.1413 166.213 38.392 166.213 40.044C166.213 41.696 165.914 42.956 165.317 43.824C164.729 44.692 163.875 45.126 162.755 45.126ZM162.755 44.132C163.539 44.132 164.117 43.8007 164.491 43.138C164.873 42.4753 165.065 41.444 165.065 40.044C165.065 38.644 164.878 37.622 164.505 36.978C164.131 36.3247 163.548 35.998 162.755 35.998C161.971 35.998 161.387 36.3247 161.005 36.978C160.631 37.6313 160.445 38.6533 160.445 40.044C160.445 41.444 160.631 42.4753 161.005 43.138C161.387 43.8007 161.971 44.132 162.755 44.132ZM168.209 45V44.132L171.583 40.492C172.059 39.9693 172.4 39.4933 172.605 39.064C172.82 38.6347 172.927 38.196 172.927 37.748C172.927 36.6 172.26 36.026 170.925 36.026C169.927 36.026 169.045 36.3993 168.279 37.146L167.845 36.25C168.209 35.8767 168.671 35.578 169.231 35.354C169.801 35.1207 170.398 35.004 171.023 35.004C172.013 35.004 172.769 35.2373 173.291 35.704C173.823 36.1613 174.089 36.8147 174.089 37.664C174.089 38.252 173.945 38.8307 173.655 39.4C173.366 39.96 172.923 40.5573 172.325 41.192L169.679 44.02H174.495V45H168.209ZM177.08 45V44.02H179.334V36.516L177.556 37.636L177.066 36.782L179.656 35.13H180.482V44.02H182.596V45H177.08ZM184.368 45.882L183.472 45.616L187.056 34.472L187.966 34.738L184.368 45.882ZM189.439 45V44.02H191.693V36.516L189.915 37.636L189.425 36.782L192.015 35.13H192.841V44.02H194.955V45H189.439ZM197.834 45V44.02H200.088V36.516L198.31 37.636L197.82 36.782L200.41 35.13H201.236V44.02H203.35V45H197.834ZM205.122 45.882L204.226 45.616L207.81 34.472L208.72 34.738L205.122 45.882ZM210.193 45V44.02H212.447V36.516L210.669 37.636L210.179 36.782L212.769 35.13H213.595V44.02H215.709V45H210.193ZM222.13 45V42.886H217.58V42.018L222.326 35.13H223.292V41.906H224.762V42.886H223.292V45H222.13ZM222.13 41.906V37.02L218.77 41.906H222.13ZM237.769 45V44.02H240.023V36.516L238.245 37.636L237.755 36.782L240.345 35.13H241.171V44.02H243.285V45H237.769ZM246.164 45V44.02H248.418V36.516L246.64 37.636L246.15 36.782L248.74 35.13H249.566V44.02H251.68V45H246.164ZM253.704 39.624V38.196H255.132V39.624H253.704ZM253.704 45V43.572H255.132V45H253.704ZM257.744 45V44.02H259.998V36.516L258.22 37.636L257.73 36.782L260.32 35.13H261.146V44.02H263.26V45H257.744ZM268.812 45.126C268.178 45.126 267.571 45.0233 266.992 44.818C266.414 44.6127 265.924 44.3233 265.522 43.95L265.956 43.04C266.824 43.7493 267.772 44.104 268.798 44.104C269.48 44.104 270.016 43.9127 270.408 43.53C270.8 43.1473 270.996 42.6433 270.996 42.018C270.996 41.374 270.81 40.8467 270.436 40.436C270.063 40.0253 269.55 39.82 268.896 39.82C267.954 39.82 267.212 40.212 266.67 40.996H265.83V35.13H271.556V36.11H266.964V39.638C267.506 39.0967 268.22 38.826 269.106 38.826C269.722 38.826 270.259 38.9567 270.716 39.218C271.174 39.4793 271.524 39.848 271.766 40.324C272.018 40.7907 272.144 41.3367 272.144 41.962C272.144 42.578 272.009 43.124 271.738 43.6C271.468 44.076 271.08 44.4493 270.576 44.72C270.082 44.9907 269.494 45.126 268.812 45.126ZM276.659 45L281.013 35.13H281.993L286.347 45H285.157L284.065 42.48H278.927L277.849 45H276.659ZM281.489 36.474L279.347 41.514H283.659L281.517 36.474H281.489ZM287.838 45V35.13H288.804L292.598 42.256L296.364 35.13H297.33V45H296.266V37.286L292.976 43.474H292.22L288.888 37.3V45H287.838Z" fill="#3A3A3A"/>
<path d="M238.726 390.126C237.139 390.126 235.931 389.678 235.1 388.782C234.269 387.886 233.854 386.649 233.854 385.072C233.854 384.027 234.041 383.126 234.414 382.37C234.787 381.614 235.324 381.031 236.024 380.62C236.724 380.209 237.569 380.004 238.558 380.004C239.258 380.004 239.902 380.111 240.49 380.326C241.078 380.531 241.577 380.835 241.988 381.236L241.54 382.16C241.092 381.768 240.63 381.483 240.154 381.306C239.678 381.129 239.141 381.04 238.544 381.04C237.424 381.04 236.565 381.395 235.968 382.104C235.371 382.804 235.072 383.793 235.072 385.072C235.072 386.379 235.38 387.377 235.996 388.068C236.612 388.759 237.531 389.104 238.754 389.104C239.547 389.104 240.308 388.969 241.036 388.698V385.772H238.53V384.862H242.03V389.426C241.769 389.566 241.451 389.687 241.078 389.79C240.714 389.893 240.327 389.972 239.916 390.028C239.505 390.093 239.109 390.126 238.726 390.126ZM247.05 390.126C246.388 390.126 245.814 389.981 245.328 389.692C244.843 389.403 244.465 388.997 244.194 388.474C243.933 387.942 243.802 387.317 243.802 386.598C243.802 385.879 243.933 385.259 244.194 384.736C244.465 384.204 244.843 383.793 245.328 383.504C245.814 383.215 246.388 383.07 247.05 383.07C247.704 383.07 248.273 383.215 248.758 383.504C249.253 383.793 249.631 384.204 249.892 384.736C250.163 385.259 250.298 385.879 250.298 386.598C250.298 387.317 250.163 387.942 249.892 388.474C249.631 388.997 249.253 389.403 248.758 389.692C248.273 389.981 247.704 390.126 247.05 390.126ZM247.05 389.216C247.685 389.216 248.194 388.992 248.576 388.544C248.959 388.087 249.15 387.438 249.15 386.598C249.15 385.749 248.959 385.1 248.576 384.652C248.194 384.204 247.685 383.98 247.05 383.98C246.406 383.98 245.893 384.204 245.51 384.652C245.137 385.1 244.95 385.749 244.95 386.598C244.95 387.438 245.137 388.087 245.51 388.544C245.893 388.992 246.406 389.216 247.05 389.216ZM254.144 390.126C253.677 390.126 253.257 390.037 252.884 389.86C252.52 389.673 252.23 389.421 252.016 389.104C251.801 388.787 251.694 388.432 251.694 388.04C251.694 387.545 251.82 387.153 252.072 386.864C252.333 386.575 252.758 386.369 253.346 386.248C253.943 386.117 254.755 386.052 255.782 386.052H256.23V385.618C256.23 385.039 256.108 384.624 255.866 384.372C255.632 384.111 255.254 383.98 254.732 383.98C254.321 383.98 253.924 384.041 253.542 384.162C253.159 384.274 252.767 384.461 252.366 384.722L251.974 383.896C252.328 383.644 252.758 383.443 253.262 383.294C253.775 383.145 254.265 383.07 254.732 383.07C255.609 383.07 256.258 383.285 256.678 383.714C257.107 384.143 257.322 384.811 257.322 385.716V390H256.258V388.824C256.08 389.225 255.805 389.543 255.432 389.776C255.068 390.009 254.638 390.126 254.144 390.126ZM254.326 389.272C254.886 389.272 255.343 389.081 255.698 388.698C256.052 388.306 256.23 387.811 256.23 387.214V386.794H255.796C255.04 386.794 254.442 386.831 254.004 386.906C253.574 386.971 253.271 387.093 253.094 387.27C252.926 387.438 252.842 387.671 252.842 387.97C252.842 388.353 252.972 388.665 253.234 388.908C253.504 389.151 253.868 389.272 254.326 389.272ZM261.511 390.126C260.821 390.126 260.298 389.925 259.943 389.524C259.598 389.113 259.425 388.521 259.425 387.746V380.13H260.559V387.662C260.559 388.661 260.956 389.16 261.749 389.16C261.983 389.16 262.193 389.132 262.379 389.076L262.351 390.028C262.062 390.093 261.782 390.126 261.511 390.126Z" fill="#5E5E5E"/>
<path d="M139.266 390L143.62 380.13H144.6L148.954 390H147.764L146.672 387.48H141.534L140.456 390H139.266ZM144.096 381.474L141.954 386.514H146.266L144.124 381.474H144.096ZM153.079 390.126C152.398 390.126 151.81 389.981 151.315 389.692C150.82 389.393 150.438 388.978 150.167 388.446C149.906 387.905 149.775 387.275 149.775 386.556C149.775 385.473 150.069 384.624 150.657 384.008C151.245 383.383 152.052 383.07 153.079 383.07C153.499 383.07 153.914 383.145 154.325 383.294C154.736 383.443 155.076 383.653 155.347 383.924L154.955 384.75C154.684 384.489 154.386 384.297 154.059 384.176C153.742 384.055 153.438 383.994 153.149 383.994C152.44 383.994 151.894 384.218 151.511 384.666C151.128 385.105 150.937 385.739 150.937 386.57C150.937 387.382 151.128 388.026 151.511 388.502C151.894 388.969 152.44 389.202 153.149 389.202C153.438 389.202 153.742 389.141 154.059 389.02C154.386 388.899 154.684 388.703 154.955 388.432L155.347 389.258C155.076 389.529 154.731 389.743 154.311 389.902C153.9 390.051 153.49 390.126 153.079 390.126ZM159.405 390.126C158.603 390.126 158.001 389.916 157.599 389.496C157.198 389.067 156.997 388.451 156.997 387.648V384.078H155.667V383.196H156.997V381.11H158.131V383.196H160.287V384.078H158.131V387.536C158.131 388.068 158.243 388.474 158.467 388.754C158.691 389.025 159.055 389.16 159.559 389.16C159.709 389.16 159.858 389.141 160.007 389.104C160.157 389.067 160.292 389.029 160.413 388.992L160.609 389.86C160.488 389.925 160.311 389.986 160.077 390.042C159.844 390.098 159.62 390.126 159.405 390.126ZM163.978 390.126C162.345 390.126 161.528 389.225 161.528 387.424V383.196H162.662V387.41C162.662 388.017 162.783 388.465 163.026 388.754C163.278 389.043 163.67 389.188 164.202 389.188C164.781 389.188 165.252 388.997 165.616 388.614C165.98 388.222 166.162 387.704 166.162 387.06V383.196H167.296V390H166.19V388.852C165.975 389.263 165.672 389.58 165.28 389.804C164.897 390.019 164.463 390.126 163.978 390.126ZM171.56 390.126C171.093 390.126 170.673 390.037 170.3 389.86C169.936 389.673 169.646 389.421 169.432 389.104C169.217 388.787 169.11 388.432 169.11 388.04C169.11 387.545 169.236 387.153 169.488 386.864C169.749 386.575 170.174 386.369 170.762 386.248C171.359 386.117 172.171 386.052 173.198 386.052H173.646V385.618C173.646 385.039 173.524 384.624 173.282 384.372C173.048 384.111 172.67 383.98 172.148 383.98C171.737 383.98 171.34 384.041 170.958 384.162C170.575 384.274 170.183 384.461 169.782 384.722L169.39 383.896C169.744 383.644 170.174 383.443 170.678 383.294C171.191 383.145 171.681 383.07 172.148 383.07C173.025 383.07 173.674 383.285 174.094 383.714C174.523 384.143 174.738 384.811 174.738 385.716V390H173.674V388.824C173.496 389.225 173.221 389.543 172.848 389.776C172.484 390.009 172.054 390.126 171.56 390.126ZM171.742 389.272C172.302 389.272 172.759 389.081 173.114 388.698C173.468 388.306 173.646 387.811 173.646 387.214V386.794H173.212C172.456 386.794 171.858 386.831 171.42 386.906C170.99 386.971 170.687 387.093 170.51 387.27C170.342 387.438 170.258 387.671 170.258 387.97C170.258 388.353 170.388 388.665 170.65 388.908C170.92 389.151 171.284 389.272 171.742 389.272ZM178.927 390.126C178.237 390.126 177.714 389.925 177.359 389.524C177.014 389.113 176.841 388.521 176.841 387.746V380.13H177.975V387.662C177.975 388.661 178.372 389.16 179.165 389.16C179.399 389.16 179.609 389.132 179.795 389.076L179.767 390.028C179.478 390.093 179.198 390.126 178.927 390.126Z" fill="#5E5E5E"/>
<path d="M127.848 308V291.08H130.92V305.384H139.032V308H127.848ZM146.703 308.24C145.375 308.24 144.231 307.992 143.271 307.496C142.311 307 141.567 306.296 141.039 305.384C140.527 304.472 140.271 303.392 140.271 302.144C140.271 300.928 140.519 299.864 141.015 298.952C141.527 298.04 142.223 297.328 143.103 296.816C143.999 296.288 145.015 296.024 146.151 296.024C147.815 296.024 149.127 296.552 150.087 297.608C151.063 298.664 151.551 300.104 151.551 301.928V302.816H143.151C143.375 304.912 144.575 305.96 146.751 305.96C147.407 305.96 148.063 305.864 148.719 305.672C149.375 305.464 149.975 305.144 150.519 304.712L151.359 306.728C150.799 307.192 150.095 307.56 149.247 307.832C148.399 308.104 147.551 308.24 146.703 308.24ZM146.271 298.064C145.391 298.064 144.679 298.336 144.135 298.88C143.591 299.424 143.263 300.16 143.151 301.088H149.055C148.991 300.112 148.719 299.368 148.239 298.856C147.775 298.328 147.119 298.064 146.271 298.064ZM157.196 308L152.108 296.264H155.3L158.564 304.472L161.948 296.264H164.948L159.788 308H157.196ZM171.946 308.24C170.618 308.24 169.474 307.992 168.514 307.496C167.554 307 166.81 306.296 166.282 305.384C165.77 304.472 165.514 303.392 165.514 302.144C165.514 300.928 165.762 299.864 166.258 298.952C166.77 298.04 167.466 297.328 168.346 296.816C169.242 296.288 170.258 296.024 171.394 296.024C173.058 296.024 174.37 296.552 175.33 297.608C176.306 298.664 176.794 300.104 176.794 301.928V302.816H168.394C168.618 304.912 169.818 305.96 171.994 305.96C172.65 305.96 173.306 305.864 173.962 305.672C174.618 305.464 175.218 305.144 175.762 304.712L176.602 306.728C176.042 307.192 175.338 307.56 174.49 307.832C173.642 308.104 172.794 308.24 171.946 308.24ZM171.514 298.064C170.634 298.064 169.922 298.336 169.378 298.88C168.834 299.424 168.506 300.16 168.394 301.088H174.298C174.234 300.112 173.962 299.368 173.482 298.856C173.018 298.328 172.362 298.064 171.514 298.064ZM183.249 308.24C181.857 308.24 180.825 307.864 180.153 307.112C179.497 306.344 179.169 305.224 179.169 303.752V291.08H182.169V303.608C182.169 305.048 182.777 305.768 183.993 305.768C184.169 305.768 184.345 305.76 184.521 305.744C184.697 305.728 184.865 305.696 185.025 305.648L184.977 308.024C184.401 308.168 183.825 308.24 183.249 308.24ZM199.086 308.24C197.982 308.24 196.91 308.072 195.87 307.736C194.83 307.384 193.982 306.912 193.326 306.32L194.334 303.968C195.79 305.088 197.358 305.648 199.038 305.648C200.046 305.648 200.83 305.392 201.39 304.88C201.966 304.352 202.254 303.648 202.254 302.768C202.254 301.872 201.982 301.152 201.438 300.608C200.894 300.048 200.15 299.768 199.206 299.768C197.862 299.768 196.75 300.304 195.87 301.376H193.806V291.08H204.198V293.624H196.806V298.208C197.654 297.568 198.694 297.248 199.926 297.248C200.998 297.248 201.926 297.48 202.71 297.944C203.51 298.392 204.126 299.024 204.558 299.84C205.006 300.64 205.23 301.576 205.23 302.648C205.23 303.752 204.982 304.728 204.486 305.576C203.99 306.408 203.278 307.064 202.35 307.544C201.438 308.008 200.35 308.24 199.086 308.24ZM214.45 308V291.08H221.794C223.65 291.08 225.082 291.528 226.09 292.424C227.098 293.304 227.602 294.544 227.602 296.144C227.602 297.408 227.274 298.456 226.618 299.288C225.962 300.104 225.018 300.656 223.786 300.944C224.602 301.2 225.274 301.816 225.802 302.792L228.634 308H225.25L222.322 302.6C222.034 302.072 221.69 301.712 221.29 301.52C220.906 301.328 220.41 301.232 219.802 301.232H217.522V308H214.45ZM217.522 298.952H221.266C223.506 298.952 224.626 298.04 224.626 296.216C224.626 294.408 223.506 293.504 221.266 293.504H217.522V298.952ZM230.423 293.744V290.816H233.783V293.744H230.423ZM230.615 308V296.264H233.615V308H230.615ZM241.028 308.24C240.036 308.24 239.108 308.12 238.244 307.88C237.38 307.64 236.66 307.296 236.084 306.848L236.852 304.88C237.444 305.28 238.108 305.592 238.844 305.816C239.58 306.024 240.316 306.128 241.052 306.128C241.82 306.128 242.388 306 242.756 305.744C243.14 305.472 243.332 305.12 243.332 304.688C243.332 304.016 242.836 303.584 241.844 303.392L239.444 302.936C237.412 302.552 236.396 301.496 236.396 299.768C236.396 299 236.604 298.336 237.02 297.776C237.452 297.216 238.044 296.784 238.796 296.48C239.548 296.176 240.412 296.024 241.388 296.024C242.22 296.024 243.02 296.144 243.788 296.384C244.556 296.608 245.212 296.952 245.756 297.416L244.94 299.384C244.476 299 243.916 298.696 243.26 298.472C242.62 298.248 242.004 298.136 241.412 298.136C240.628 298.136 240.044 298.272 239.66 298.544C239.292 298.816 239.108 299.176 239.108 299.624C239.108 300.328 239.564 300.76 240.476 300.92L242.876 301.376C243.916 301.568 244.7 301.92 245.228 302.432C245.772 302.944 246.044 303.632 246.044 304.496C246.044 305.664 245.588 306.584 244.676 307.256C243.764 307.912 242.548 308.24 241.028 308.24ZM248.259 293.744V290.816H251.619V293.744H248.259ZM248.451 308V296.264H251.451V308H248.451ZM254.568 308V296.264H257.496V298.088C257.896 297.416 258.432 296.904 259.104 296.552C259.792 296.2 260.56 296.024 261.408 296.024C264.176 296.024 265.56 297.632 265.56 300.848V308H262.56V300.992C262.56 300.08 262.384 299.416 262.032 299C261.696 298.584 261.168 298.376 260.448 298.376C259.568 298.376 258.864 298.656 258.336 299.216C257.824 299.76 257.568 300.488 257.568 301.4V308H254.568ZM274.079 312.56C272.991 312.56 271.967 312.432 271.007 312.176C270.063 311.936 269.231 311.56 268.511 311.048L269.375 308.96C270.047 309.408 270.767 309.736 271.535 309.944C272.303 310.168 273.071 310.28 273.839 310.28C275.983 310.28 277.055 309.248 277.055 307.184V305.576C276.719 306.232 276.199 306.752 275.495 307.136C274.807 307.52 274.039 307.712 273.191 307.712C272.135 307.712 271.215 307.472 270.431 306.992C269.647 306.496 269.039 305.808 268.607 304.928C268.175 304.048 267.959 303.024 267.959 301.856C267.959 300.688 268.175 299.672 268.607 298.808C269.039 297.928 269.647 297.248 270.431 296.768C271.215 296.272 272.135 296.024 273.191 296.024C274.071 296.024 274.855 296.224 275.543 296.624C276.231 297.008 276.735 297.528 277.055 298.184V296.264H279.983V306.824C279.983 308.728 279.479 310.16 278.471 311.12C277.463 312.08 275.999 312.56 274.079 312.56ZM274.007 305.432C274.935 305.432 275.671 305.112 276.215 304.472C276.759 303.832 277.031 302.96 277.031 301.856C277.031 300.752 276.759 299.888 276.215 299.264C275.671 298.624 274.935 298.304 274.007 298.304C273.079 298.304 272.343 298.624 271.799 299.264C271.255 299.888 270.983 300.752 270.983 301.856C270.983 302.96 271.255 303.832 271.799 304.472C272.343 305.112 273.079 305.432 274.007 305.432Z" fill="#474747"/>
<path d="M63.8684 361L54 351.5M54 351.5L63.8684 342M54 351.5H79" stroke="#474747" stroke-width="2.52537" stroke-linecap="round"/>
<path d="M338.132 362L348 352.5M348 352.5L338.132 343M348 352.5H323" stroke="#474747" stroke-width="2.52537" stroke-linecap="round"/>
<rect width="57" height="48" rx="5" transform="matrix(1 0 0 -1 219 370.914)" fill="url(#paint0_linear)"/>
<path d="M238.312 353.887V351.979H241.174V343.825L238.96 345.157L238.06 343.465L241.84 341.197H243.478V351.979H246.16V353.887H238.312ZM252.543 354.067C251.043 354.067 249.897 353.503 249.105 352.375C248.313 351.235 247.917 349.615 247.917 347.515C247.917 345.391 248.313 343.777 249.105 342.673C249.897 341.569 251.043 341.017 252.543 341.017C254.055 341.017 255.201 341.569 255.981 342.673C256.773 343.777 257.169 345.385 257.169 347.497C257.169 349.609 256.773 351.235 255.981 352.375C255.189 353.503 254.043 354.067 252.543 354.067ZM252.543 352.177C253.359 352.177 253.959 351.805 254.343 351.061C254.739 350.305 254.937 349.117 254.937 347.497C254.937 345.889 254.739 344.725 254.343 344.005C253.959 343.273 253.359 342.907 252.543 342.907C251.739 342.907 251.139 343.273 250.743 344.005C250.347 344.725 250.149 345.889 250.149 347.497C250.149 349.117 250.347 350.305 250.743 351.061C251.139 351.805 251.739 352.177 252.543 352.177Z" fill="white"/>
<rect x="132.5" y="323.414" width="53" height="47" rx="4.5" stroke="#3F3F3F"/>
<path d="M158.64 355.346C157.188 355.346 156.084 354.788 155.328 353.672C154.572 352.556 154.194 350.942 154.194 348.83C154.194 346.706 154.572 345.092 155.328 343.988C156.084 342.884 157.188 342.332 158.64 342.332C160.104 342.332 161.208 342.884 161.952 343.988C162.708 345.08 163.086 346.688 163.086 348.812C163.086 350.936 162.702 352.556 161.934 353.672C161.178 354.788 160.08 355.346 158.64 355.346ZM158.64 354.068C159.648 354.068 160.392 353.642 160.872 352.79C161.364 351.938 161.61 350.612 161.61 348.812C161.61 347.012 161.37 345.698 160.89 344.87C160.41 344.03 159.66 343.61 158.64 343.61C157.632 343.61 156.882 344.03 156.39 344.87C155.91 345.71 155.67 347.024 155.67 348.812C155.67 350.612 155.91 351.938 156.39 352.79C156.882 353.642 157.632 354.068 158.64 354.068Z" fill="#3D3D3D"/>
<path d="M113.5 250L120.861 262.75H106.139L113.5 250Z" fill="#D00000"/>
<defs>
<filter id="filter0_d" x="0" y="0" width="416" height="434" filterUnits="userSpaceOnUse" color-interpolation-filters="sRGB">
<feFlood flood-opacity="0" result="BackgroundImageFix"/>
<feColorMatrix in="SourceAlpha" type="matrix" values="0 0 0 0 0 0 0 0 0 0 0 0 0 0 0 0 0 0 127 0"/>
<feOffset dx="4" dy="4"/>
<feGaussianBlur stdDeviation="2"/>
<feColorMatrix type="matrix" values="0 0 0 0 0 0 0 0 0 0 0 0 0 0 0 0 0 0 0.25 0"/>
<feBlend mode="normal" in2="BackgroundImageFix" result="effect1_dropShadow"/>
<feBlend mode="normal" in="SourceGraphic" in2="effect1_dropShadow" result="shape"/>
</filter>
<linearGradient id="paint0_linear" x1="28.5" y1="0" x2="28.5" y2="48" gradientUnits="userSpaceOnUse">
<stop stop-color="#A90000"/>
<stop offset="1" stop-color="#DE0000"/>
</linearGradient>
</defs>
</svg>
