<svg width="376" height="380" viewBox="0 0 376 380" fill="none" xmlns="http://www.w3.org/2000/svg">
<g filter="url(#filter0_d)">
<rect width="368" height="372" fill="white"/>
<rect x="0.5" y="0.5" width="367" height="371" stroke="#C6C6C6"/>
</g>
<rect x="31.5" y="51.5" width="136" height="55" fill="#FBFBFB" stroke="#EEEEEE"/>
<path d="M45.4678 77.1035V81H44.1553V71.0469H47.8262C48.9154 71.0469 49.7676 71.3249 50.3828 71.8809C51.0026 72.4368 51.3125 73.1729 51.3125 74.0889C51.3125 75.055 51.0094 75.8001 50.4033 76.3242C49.8018 76.8438 48.9382 77.1035 47.8125 77.1035H45.4678ZM45.4678 76.0303H47.8262C48.528 76.0303 49.0658 75.8662 49.4395 75.5381C49.8132 75.2054 50 74.7269 50 74.1025C50 73.5101 49.8132 73.0361 49.4395 72.6807C49.0658 72.3252 48.5531 72.1406 47.9014 72.127H45.4678V76.0303ZM57.3555 80.2686C56.8633 80.8473 56.141 81.1367 55.1885 81.1367C54.4001 81.1367 53.7985 80.9089 53.3838 80.4531C52.9736 79.9928 52.7663 79.3138 52.7617 78.416V73.6035H54.0264V78.3818C54.0264 79.5029 54.4821 80.0635 55.3936 80.0635C56.3597 80.0635 57.0023 79.7035 57.3213 78.9834V73.6035H58.5859V81H57.3828L57.3555 80.2686ZM64.8203 79.0381C64.8203 78.6963 64.6904 78.432 64.4307 78.2451C64.1755 78.0537 63.7266 77.8896 63.084 77.7529C62.446 77.6162 61.9378 77.4521 61.5596 77.2607C61.1859 77.0693 60.9079 76.8415 60.7256 76.5771C60.5479 76.3128 60.459 75.9984 60.459 75.6338C60.459 75.0277 60.7142 74.515 61.2246 74.0957C61.7396 73.6764 62.3958 73.4668 63.1934 73.4668C64.0319 73.4668 64.7109 73.6833 65.2305 74.1162C65.7546 74.5492 66.0166 75.1029 66.0166 75.7773H64.7451C64.7451 75.431 64.597 75.1325 64.3008 74.8818C64.0091 74.6312 63.64 74.5059 63.1934 74.5059C62.7331 74.5059 62.373 74.6061 62.1133 74.8066C61.8535 75.0072 61.7236 75.2692 61.7236 75.5928C61.7236 75.8981 61.8444 76.1283 62.0859 76.2832C62.3275 76.4382 62.7627 76.5863 63.3916 76.7275C64.0251 76.8688 64.5378 77.0374 64.9297 77.2334C65.3216 77.4294 65.611 77.6663 65.7979 77.9443C65.9893 78.2178 66.085 78.5527 66.085 78.9492C66.085 79.61 65.8206 80.141 65.292 80.542C64.7633 80.9385 64.0775 81.1367 63.2344 81.1367C62.6419 81.1367 62.1178 81.0319 61.6621 80.8223C61.2064 80.6126 60.8486 80.321 60.5889 79.9473C60.3337 79.569 60.2061 79.1611 60.2061 78.7236H61.4707C61.4935 79.1475 61.6621 79.4847 61.9766 79.7354C62.2956 79.9814 62.7148 80.1045 63.2344 80.1045C63.7129 80.1045 64.0957 80.0088 64.3828 79.8174C64.6745 79.6214 64.8203 79.3617 64.8203 79.0381ZM68.9971 74.499C69.5576 73.8109 70.2868 73.4668 71.1846 73.4668C72.7477 73.4668 73.5361 74.3486 73.5498 76.1123V81H72.2852V76.1055C72.2806 75.5723 72.1576 75.1781 71.916 74.9229C71.679 74.6676 71.3076 74.54 70.8018 74.54C70.3916 74.54 70.0316 74.6494 69.7217 74.8682C69.4118 75.0869 69.1702 75.374 68.9971 75.7295V81H67.7324V70.5H68.9971V74.499ZM78.0752 77.2881H74.7393V76.2559H78.0752V77.2881ZM83.8789 80.2686C83.3867 80.8473 82.6644 81.1367 81.7119 81.1367C80.9235 81.1367 80.3219 80.9089 79.9072 80.4531C79.4971 79.9928 79.2897 79.3138 79.2852 78.416V73.6035H80.5498V78.3818C80.5498 79.5029 81.0055 80.0635 81.917 80.0635C82.8831 80.0635 83.5257 79.7035 83.8447 78.9834V73.6035H85.1094V81H83.9062L83.8789 80.2686ZM93.2852 77.3838C93.2852 78.5094 93.0277 79.4163 92.5127 80.1045C91.9977 80.7926 91.3005 81.1367 90.4209 81.1367C89.5231 81.1367 88.8167 80.8519 88.3018 80.2822V83.8438H87.0371V73.6035H88.1924L88.2539 74.4238C88.7689 73.7858 89.4844 73.4668 90.4004 73.4668C91.2891 73.4668 91.9909 73.8018 92.5059 74.4717C93.0254 75.1416 93.2852 76.0736 93.2852 77.2676V77.3838ZM92.0205 77.2402C92.0205 76.4062 91.8428 75.7477 91.4873 75.2646C91.1318 74.7816 90.6442 74.54 90.0244 74.54C89.2588 74.54 88.6846 74.8796 88.3018 75.5586V79.0928C88.68 79.7673 89.2588 80.1045 90.0381 80.1045C90.6442 80.1045 91.125 79.8652 91.4805 79.3867C91.8405 78.9036 92.0205 78.1882 92.0205 77.2402ZM99.2051 79.0381C99.2051 78.6963 99.0752 78.432 98.8154 78.2451C98.5602 78.0537 98.1113 77.8896 97.4688 77.7529C96.8307 77.6162 96.3226 77.4521 95.9443 77.2607C95.5706 77.0693 95.2926 76.8415 95.1104 76.5771C94.9326 76.3128 94.8438 75.9984 94.8438 75.6338C94.8438 75.0277 95.099 74.515 95.6094 74.0957C96.1243 73.6764 96.7806 73.4668 97.5781 73.4668C98.4167 73.4668 99.0957 73.6833 99.6152 74.1162C100.139 74.5492 100.401 75.1029 100.401 75.7773H99.1299C99.1299 75.431 98.9818 75.1325 98.6855 74.8818C98.3939 74.6312 98.0247 74.5059 97.5781 74.5059C97.1178 74.5059 96.7578 74.6061 96.498 74.8066C96.2383 75.0072 96.1084 75.2692 96.1084 75.5928C96.1084 75.8981 96.2292 76.1283 96.4707 76.2832C96.7122 76.4382 97.1475 76.5863 97.7764 76.7275C98.4098 76.8688 98.9225 77.0374 99.3145 77.2334C99.7064 77.4294 99.9958 77.6663 100.183 77.9443C100.374 78.2178 100.47 78.5527 100.47 78.9492C100.47 79.61 100.205 80.141 99.6768 80.542C99.1481 80.9385 98.4622 81.1367 97.6191 81.1367C97.0267 81.1367 96.5026 81.0319 96.0469 80.8223C95.5911 80.6126 95.2334 80.321 94.9736 79.9473C94.7184 79.569 94.5908 79.1611 94.5908 78.7236H95.8555C95.8783 79.1475 96.0469 79.4847 96.3613 79.7354C96.6803 79.9814 97.0996 80.1045 97.6191 80.1045C98.0977 80.1045 98.4805 80.0088 98.7676 79.8174C99.0592 79.6214 99.2051 79.3617 99.2051 79.0381Z" fill="#3A3A3A"/>
<path d="M32.566 44V31.31H40.576V32.552H34.006V36.944H40.198V38.186H34.006V42.758H40.576V44H32.566ZM41.7461 44L45.3821 39.482L41.9621 35.252H43.6901L46.2281 38.474L48.7841 35.252H50.4941L47.0741 39.482L50.7101 44H48.9821L46.2101 40.526L43.4741 44H41.7461ZM56.0678 44.162C54.6878 44.162 53.5958 43.76 52.7918 42.956C51.9878 42.14 51.5858 41.036 51.5858 39.644C51.5858 38.744 51.7658 37.952 52.1258 37.268C52.4858 36.572 52.9778 36.038 53.6018 35.666C54.2378 35.282 54.9698 35.09 55.7978 35.09C56.9858 35.09 57.9158 35.474 58.5878 36.242C59.2598 36.998 59.5958 38.042 59.5958 39.374V39.932H53.0078C53.0558 40.928 53.3438 41.69 53.8718 42.218C54.3998 42.734 55.1318 42.992 56.0678 42.992C56.5958 42.992 57.0998 42.914 57.5798 42.758C58.0598 42.59 58.5158 42.32 58.9478 41.948L59.4518 42.974C59.0558 43.346 58.5518 43.64 57.9398 43.856C57.3278 44.06 56.7038 44.162 56.0678 44.162ZM55.8338 36.17C55.0058 36.17 54.3518 36.428 53.8718 36.944C53.3918 37.46 53.1098 38.138 53.0258 38.978H58.3358C58.2998 38.09 58.0658 37.4 57.6338 36.908C57.2138 36.416 56.6138 36.17 55.8338 36.17ZM61.7059 44V35.252H63.1279V36.818C63.5959 35.762 64.5559 35.18 66.0079 35.072L66.5299 35.018L66.6379 36.278L65.7199 36.386C64.8919 36.458 64.2619 36.722 63.8299 37.178C63.3979 37.622 63.1819 38.234 63.1819 39.014V44H61.7059ZM71.7596 44.162C70.8836 44.162 70.1276 43.976 69.4916 43.604C68.8556 43.22 68.3636 42.686 68.0156 42.002C67.6796 41.306 67.5116 40.496 67.5116 39.572C67.5116 38.18 67.8896 37.088 68.6456 36.296C69.4016 35.492 70.4396 35.09 71.7596 35.09C72.2996 35.09 72.8336 35.186 73.3616 35.378C73.8896 35.57 74.3276 35.84 74.6756 36.188L74.1716 37.25C73.8236 36.914 73.4396 36.668 73.0196 36.512C72.6116 36.356 72.2216 36.278 71.8496 36.278C70.9376 36.278 70.2356 36.566 69.7436 37.142C69.2516 37.706 69.0056 38.522 69.0056 39.59C69.0056 40.634 69.2516 41.462 69.7436 42.074C70.2356 42.674 70.9376 42.974 71.8496 42.974C72.2216 42.974 72.6116 42.896 73.0196 42.74C73.4396 42.584 73.8236 42.332 74.1716 41.984L74.6756 43.046C74.3276 43.394 73.8836 43.67 73.3436 43.874C72.8156 44.066 72.2876 44.162 71.7596 44.162ZM76.2036 33.074V31.436H78.0036V33.074H76.2036ZM76.3836 44V35.252H77.8416V44H76.3836ZM83.5192 44.162C82.8352 44.162 82.1872 44.066 81.5752 43.874C80.9632 43.682 80.4592 43.412 80.0632 43.064L80.5312 42.038C80.9632 42.386 81.4372 42.644 81.9532 42.812C82.4812 42.968 83.0152 43.046 83.5552 43.046C84.2392 43.046 84.7552 42.92 85.1032 42.668C85.4512 42.416 85.6252 42.074 85.6252 41.642C85.6252 41.306 85.5112 41.042 85.2832 40.85C85.0552 40.646 84.6952 40.49 84.2032 40.382L82.5652 40.022C81.0772 39.698 80.3332 38.93 80.3332 37.718C80.3332 36.926 80.6452 36.29 81.2692 35.81C81.9052 35.33 82.7332 35.09 83.7532 35.09C84.3532 35.09 84.9232 35.186 85.4632 35.378C86.0152 35.558 86.4712 35.828 86.8312 36.188L86.3452 37.214C85.9972 36.89 85.5892 36.644 85.1212 36.476C84.6652 36.296 84.2092 36.206 83.7532 36.206C83.0812 36.206 82.5712 36.338 82.2232 36.602C81.8752 36.866 81.7012 37.214 81.7012 37.646C81.7012 38.318 82.1452 38.75 83.0332 38.942L84.6712 39.284C85.4392 39.452 86.0212 39.722 86.4172 40.094C86.8132 40.454 87.0112 40.946 87.0112 41.57C87.0112 42.374 86.6932 43.01 86.0572 43.478C85.4212 43.934 84.5752 44.162 83.5192 44.162ZM93.1752 44.162C91.7952 44.162 90.7032 43.76 89.8992 42.956C89.0952 42.14 88.6932 41.036 88.6932 39.644C88.6932 38.744 88.8732 37.952 89.2332 37.268C89.5932 36.572 90.0852 36.038 90.7092 35.666C91.3452 35.282 92.0772 35.09 92.9052 35.09C94.0932 35.09 95.0232 35.474 95.6952 36.242C96.3672 36.998 96.7032 38.042 96.7032 39.374V39.932H90.1152C90.1632 40.928 90.4512 41.69 90.9792 42.218C91.5072 42.734 92.2392 42.992 93.1752 42.992C93.7032 42.992 94.2072 42.914 94.6872 42.758C95.1672 42.59 95.6232 42.32 96.0552 41.948L96.5592 42.974C96.1632 43.346 95.6592 43.64 95.0472 43.856C94.4352 44.06 93.8112 44.162 93.1752 44.162ZM92.9412 36.17C92.1132 36.17 91.4592 36.428 90.9792 36.944C90.4992 37.46 90.2172 38.138 90.1332 38.978H95.4432C95.4072 38.09 95.1732 37.4 94.7412 36.908C94.3212 36.416 93.7212 36.17 92.9412 36.17Z" fill="#3A3A3A"/>
<rect x="201.5" y="51.5" width="136" height="55" fill="#FBFBFB" stroke="#EEEEEE"/>
<path d="M217.532 76.7383C217.341 76.7064 217.133 76.6904 216.91 76.6904C216.081 76.6904 215.518 77.0436 215.222 77.75V83H213.957V75.6035H215.188L215.208 76.458C215.623 75.7972 216.211 75.4668 216.972 75.4668C217.218 75.4668 217.405 75.4987 217.532 75.5625V76.7383ZM221.634 83.1367C220.631 83.1367 219.815 82.8086 219.187 82.1523C218.558 81.4915 218.243 80.6097 218.243 79.5068V79.2744C218.243 78.5407 218.382 77.8867 218.66 77.3125C218.943 76.7337 219.335 76.2826 219.836 75.959C220.342 75.6309 220.889 75.4668 221.477 75.4668C222.438 75.4668 223.186 75.7835 223.719 76.417C224.252 77.0505 224.519 77.9574 224.519 79.1377V79.6641H219.508C219.526 80.3932 219.738 80.9834 220.144 81.4346C220.554 81.8812 221.073 82.1045 221.702 82.1045C222.149 82.1045 222.527 82.0133 222.837 81.8311C223.147 81.6488 223.418 81.4072 223.65 81.1064L224.423 81.708C223.803 82.6605 222.873 83.1367 221.634 83.1367ZM221.477 76.5059C220.966 76.5059 220.538 76.6927 220.191 77.0664C219.845 77.4355 219.631 77.9551 219.549 78.625H223.254V78.5293C223.217 77.8867 223.044 77.39 222.734 77.0391C222.424 76.6836 222.005 76.5059 221.477 76.5059ZM232.236 79.3838C232.236 80.5094 231.979 81.4163 231.464 82.1045C230.949 82.7926 230.252 83.1367 229.372 83.1367C228.474 83.1367 227.768 82.8519 227.253 82.2822V85.8438H225.988V75.6035H227.144L227.205 76.4238C227.72 75.7858 228.436 75.4668 229.352 75.4668C230.24 75.4668 230.942 75.8018 231.457 76.4717C231.977 77.1416 232.236 78.0736 232.236 79.2676V79.3838ZM230.972 79.2402C230.972 78.4062 230.794 77.7477 230.438 77.2646C230.083 76.7816 229.595 76.54 228.976 76.54C228.21 76.54 227.636 76.8796 227.253 77.5586V81.0928C227.631 81.7673 228.21 82.1045 228.989 82.1045C229.595 82.1045 230.076 81.8652 230.432 81.3867C230.792 80.9036 230.972 80.1882 230.972 79.2402ZM238.156 81.0381C238.156 80.6963 238.026 80.432 237.767 80.2451C237.511 80.0537 237.062 79.8896 236.42 79.7529C235.782 79.6162 235.274 79.4521 234.896 79.2607C234.522 79.0693 234.244 78.8415 234.062 78.5771C233.884 78.3128 233.795 77.9984 233.795 77.6338C233.795 77.0277 234.05 76.515 234.561 76.0957C235.076 75.6764 235.732 75.4668 236.529 75.4668C237.368 75.4668 238.047 75.6833 238.566 76.1162C239.09 76.5492 239.353 77.1029 239.353 77.7773H238.081C238.081 77.431 237.933 77.1325 237.637 76.8818C237.345 76.6312 236.976 76.5059 236.529 76.5059C236.069 76.5059 235.709 76.6061 235.449 76.8066C235.189 77.0072 235.06 77.2692 235.06 77.5928C235.06 77.8981 235.18 78.1283 235.422 78.2832C235.663 78.4382 236.099 78.5863 236.728 78.7275C237.361 78.8688 237.874 79.0374 238.266 79.2334C238.658 79.4294 238.947 79.6663 239.134 79.9443C239.325 80.2178 239.421 80.5527 239.421 80.9492C239.421 81.61 239.157 82.141 238.628 82.542C238.099 82.9385 237.413 83.1367 236.57 83.1367C235.978 83.1367 235.454 83.0319 234.998 82.8223C234.542 82.6126 234.185 82.321 233.925 81.9473C233.67 81.569 233.542 81.1611 233.542 80.7236H234.807C234.829 81.1475 234.998 81.4847 235.312 81.7354C235.632 81.9814 236.051 82.1045 236.57 82.1045C237.049 82.1045 237.432 82.0088 237.719 81.8174C238.01 81.6214 238.156 81.3617 238.156 81.0381Z" fill="#3A3A3A"/>
<path d="M207.57 43.162C205.902 43.162 204.636 42.724 203.772 41.848C202.908 40.96 202.476 39.67 202.476 37.978V30.31H203.952V37.906C203.952 40.534 205.158 41.848 207.57 41.848C209.958 41.848 211.152 40.534 211.152 37.906V30.31H212.628V37.978C212.628 39.67 212.196 40.96 211.332 41.848C210.48 42.724 209.226 43.162 207.57 43.162ZM215.464 43V34.252H216.886V35.746C217.174 35.194 217.582 34.78 218.11 34.504C218.638 34.228 219.232 34.09 219.892 34.09C221.968 34.09 223.006 35.242 223.006 37.546V43H221.548V37.636C221.548 36.82 221.386 36.226 221.062 35.854C220.75 35.47 220.246 35.278 219.55 35.278C218.746 35.278 218.104 35.53 217.624 36.034C217.156 36.526 216.922 37.186 216.922 38.014V43H215.464ZM225.514 32.074V30.436H227.314V32.074H225.514ZM225.694 43V34.252H227.152V43H225.694ZM233.388 43.162C232.356 43.162 231.582 42.892 231.066 42.352C230.55 41.8 230.292 41.008 230.292 39.976V35.386H228.582V34.252H230.292V31.57H231.75V34.252H234.522V35.386H231.75V39.832C231.75 40.516 231.894 41.038 232.182 41.398C232.47 41.746 232.938 41.92 233.586 41.92C233.778 41.92 233.97 41.896 234.162 41.848C234.354 41.8 234.528 41.752 234.684 41.704L234.936 42.82C234.78 42.904 234.552 42.982 234.252 43.054C233.952 43.126 233.664 43.162 233.388 43.162ZM239.123 43.162C238.439 43.162 237.791 43.066 237.179 42.874C236.567 42.682 236.063 42.412 235.667 42.064L236.135 41.038C236.567 41.386 237.041 41.644 237.557 41.812C238.085 41.968 238.619 42.046 239.159 42.046C239.843 42.046 240.359 41.92 240.707 41.668C241.055 41.416 241.229 41.074 241.229 40.642C241.229 40.306 241.115 40.042 240.887 39.85C240.659 39.646 240.299 39.49 239.807 39.382L238.169 39.022C236.681 38.698 235.937 37.93 235.937 36.718C235.937 35.926 236.249 35.29 236.873 34.81C237.509 34.33 238.337 34.09 239.357 34.09C239.957 34.09 240.527 34.186 241.067 34.378C241.619 34.558 242.075 34.828 242.435 35.188L241.949 36.214C241.601 35.89 241.193 35.644 240.725 35.476C240.269 35.296 239.813 35.206 239.357 35.206C238.685 35.206 238.175 35.338 237.827 35.602C237.479 35.866 237.305 36.214 237.305 36.646C237.305 37.318 237.749 37.75 238.637 37.942L240.275 38.284C241.043 38.452 241.625 38.722 242.021 39.094C242.417 39.454 242.615 39.946 242.615 40.57C242.615 41.374 242.297 42.01 241.661 42.478C241.025 42.934 240.179 43.162 239.123 43.162Z" fill="#3A3A3A"/>
<rect x="31.5" y="163.548" width="136" height="55" fill="#FBFBFB" stroke="#EEEEEE"/>
<path d="M50.3486 195H43.8271V194.091L47.2725 190.263C47.7829 189.684 48.1338 189.215 48.3252 188.854C48.5212 188.49 48.6191 188.114 48.6191 187.727C48.6191 187.207 48.4619 186.781 48.1475 186.448C47.833 186.116 47.4137 185.949 46.8896 185.949C46.2607 185.949 45.7708 186.129 45.4199 186.489C45.0736 186.845 44.9004 187.341 44.9004 187.979H43.6357C43.6357 187.063 43.9297 186.323 44.5176 185.758C45.11 185.193 45.9007 184.91 46.8896 184.91C47.8148 184.91 48.5462 185.154 49.084 185.642C49.6217 186.125 49.8906 186.77 49.8906 187.576C49.8906 188.556 49.2663 189.723 48.0176 191.076L45.3516 193.968H50.3486V195Z" fill="#3A3A3A"/>
<path d="M32.566 155V142.31H34.042V153.704H40.504V155H32.566ZM45.9955 155.162C44.6155 155.162 43.5235 154.76 42.7195 153.956C41.9155 153.14 41.5135 152.036 41.5135 150.644C41.5135 149.744 41.6935 148.952 42.0535 148.268C42.4135 147.572 42.9055 147.038 43.5295 146.666C44.1655 146.282 44.8975 146.09 45.7255 146.09C46.9135 146.09 47.8435 146.474 48.5155 147.242C49.1875 147.998 49.5235 149.042 49.5235 150.374V150.932H42.9355C42.9835 151.928 43.2715 152.69 43.7995 153.218C44.3275 153.734 45.0595 153.992 45.9955 153.992C46.5235 153.992 47.0275 153.914 47.5075 153.758C47.9875 153.59 48.4435 153.32 48.8755 152.948L49.3795 153.974C48.9835 154.346 48.4795 154.64 47.8675 154.856C47.2555 155.06 46.6315 155.162 45.9955 155.162ZM45.7615 147.17C44.9335 147.17 44.2795 147.428 43.7995 147.944C43.3195 148.46 43.0375 149.138 42.9535 149.978H48.2635C48.2275 149.09 47.9935 148.4 47.5615 147.908C47.1415 147.416 46.5415 147.17 45.7615 147.17ZM54.1022 155L50.3402 146.252H51.9242L54.8222 153.344L57.7562 146.252H59.2502L55.4702 155H54.1022ZM64.6108 155.162C63.2308 155.162 62.1388 154.76 61.3348 153.956C60.5308 153.14 60.1288 152.036 60.1288 150.644C60.1288 149.744 60.3088 148.952 60.6688 148.268C61.0288 147.572 61.5208 147.038 62.1448 146.666C62.7808 146.282 63.5128 146.09 64.3408 146.09C65.5288 146.09 66.4588 146.474 67.1308 147.242C67.8028 147.998 68.1388 149.042 68.1388 150.374V150.932H61.5508C61.5988 151.928 61.8868 152.69 62.4148 153.218C62.9428 153.734 63.6748 153.992 64.6108 153.992C65.1388 153.992 65.6428 153.914 66.1228 153.758C66.6028 153.59 67.0588 153.32 67.4908 152.948L67.9948 153.974C67.5988 154.346 67.0948 154.64 66.4828 154.856C65.8708 155.06 65.2468 155.162 64.6108 155.162ZM64.3768 147.17C63.5488 147.17 62.8948 147.428 62.4148 147.944C61.9348 148.46 61.6528 149.138 61.5688 149.978H66.8788C66.8428 149.09 66.6088 148.4 66.1768 147.908C65.7568 147.416 65.1568 147.17 64.3768 147.17ZM72.9309 155.162C72.0429 155.162 71.3709 154.904 70.9149 154.388C70.4709 153.86 70.2489 153.098 70.2489 152.102V142.31H71.7069V151.994C71.7069 153.278 72.2169 153.92 73.2369 153.92C73.5369 153.92 73.8069 153.884 74.0469 153.812L74.0109 155.036C73.6389 155.12 73.2789 155.162 72.9309 155.162ZM81.0621 155V153.74H83.9601V144.092L81.6741 145.532L81.0441 144.434L84.3741 142.31H85.4361V153.74H88.1541V155H81.0621ZM101.608 155.162C99.5681 155.162 98.0141 154.586 96.9461 153.434C95.8781 152.282 95.3441 150.692 95.3441 148.664C95.3441 147.32 95.5841 146.162 96.0641 145.19C96.5441 144.218 97.2341 143.468 98.1341 142.94C99.0341 142.412 100.12 142.148 101.392 142.148C102.292 142.148 103.12 142.286 103.876 142.562C104.632 142.826 105.274 143.216 105.802 143.732L105.226 144.92C104.65 144.416 104.056 144.05 103.444 143.822C102.832 143.594 102.142 143.48 101.374 143.48C99.9341 143.48 98.8301 143.936 98.0621 144.848C97.2941 145.748 96.9101 147.02 96.9101 148.664C96.9101 150.344 97.3061 151.628 98.0981 152.516C98.8901 153.404 100.072 153.848 101.644 153.848C102.664 153.848 103.642 153.674 104.578 153.326V149.564H101.356V148.394H105.856V154.262C105.52 154.442 105.112 154.598 104.632 154.73C104.164 154.862 103.666 154.964 103.138 155.036C102.61 155.12 102.1 155.162 101.608 155.162ZM112.311 155.162C111.459 155.162 110.721 154.976 110.097 154.604C109.473 154.232 108.987 153.71 108.639 153.038C108.303 152.354 108.135 151.55 108.135 150.626C108.135 149.702 108.303 148.904 108.639 148.232C108.987 147.548 109.473 147.02 110.097 146.648C110.721 146.276 111.459 146.09 112.311 146.09C113.151 146.09 113.883 146.276 114.507 146.648C115.143 147.02 115.629 147.548 115.965 148.232C116.313 148.904 116.487 149.702 116.487 150.626C116.487 151.55 116.313 152.354 115.965 153.038C115.629 153.71 115.143 154.232 114.507 154.604C113.883 154.976 113.151 155.162 112.311 155.162ZM112.311 153.992C113.127 153.992 113.781 153.704 114.273 153.128C114.765 152.54 115.011 151.706 115.011 150.626C115.011 149.534 114.765 148.7 114.273 148.124C113.781 147.548 113.127 147.26 112.311 147.26C111.483 147.26 110.823 147.548 110.331 148.124C109.851 148.7 109.611 149.534 109.611 150.626C109.611 151.706 109.851 152.54 110.331 153.128C110.823 153.704 111.483 153.992 112.311 153.992ZM121.431 155.162C120.831 155.162 120.291 155.048 119.811 154.82C119.343 154.58 118.971 154.256 118.695 153.848C118.419 153.44 118.281 152.984 118.281 152.48C118.281 151.844 118.443 151.34 118.767 150.968C119.103 150.596 119.649 150.332 120.405 150.176C121.173 150.008 122.217 149.924 123.537 149.924H124.113V149.366C124.113 148.622 123.957 148.088 123.645 147.764C123.345 147.428 122.859 147.26 122.187 147.26C121.659 147.26 121.149 147.338 120.657 147.494C120.165 147.638 119.661 147.878 119.145 148.214L118.641 147.152C119.097 146.828 119.649 146.57 120.297 146.378C120.957 146.186 121.587 146.09 122.187 146.09C123.315 146.09 124.149 146.366 124.689 146.918C125.241 147.47 125.517 148.328 125.517 149.492V155H124.149V153.488C123.921 154.004 123.567 154.412 123.087 154.712C122.619 155.012 122.067 155.162 121.431 155.162ZM121.665 154.064C122.385 154.064 122.973 153.818 123.429 153.326C123.885 152.822 124.113 152.186 124.113 151.418V150.878H123.555C122.583 150.878 121.815 150.926 121.251 151.022C120.699 151.106 120.309 151.262 120.081 151.49C119.865 151.706 119.757 152.006 119.757 152.39C119.757 152.882 119.925 153.284 120.261 153.596C120.609 153.908 121.077 154.064 121.665 154.064ZM130.904 155.162C130.016 155.162 129.344 154.904 128.888 154.388C128.444 153.86 128.222 153.098 128.222 152.102V142.31H129.68V151.994C129.68 153.278 130.19 153.92 131.21 153.92C131.51 153.92 131.78 153.884 132.02 153.812L131.984 155.036C131.612 155.12 131.252 155.162 130.904 155.162Z" fill="#3A3A3A"/>
<rect x="201.5" y="163.597" width="136" height="55" fill="#FBFBFB" stroke="#EEEEEE"/>
<path d="M219.166 191.657H220.547V192.689H219.166V195H217.895V192.689H213.362V191.944L217.819 185.047H219.166V191.657ZM214.798 191.657H217.895V186.776L217.744 187.05L214.798 191.657Z" fill="#3A3A3A"/>
<path d="M202.566 155V142.31H204.042V153.704H210.504V155H202.566ZM215.996 155.162C214.616 155.162 213.524 154.76 212.72 153.956C211.916 153.14 211.514 152.036 211.514 150.644C211.514 149.744 211.694 148.952 212.054 148.268C212.414 147.572 212.906 147.038 213.53 146.666C214.166 146.282 214.898 146.09 215.726 146.09C216.914 146.09 217.844 146.474 218.516 147.242C219.188 147.998 219.524 149.042 219.524 150.374V150.932H212.936C212.984 151.928 213.272 152.69 213.8 153.218C214.328 153.734 215.06 153.992 215.996 153.992C216.524 153.992 217.028 153.914 217.508 153.758C217.988 153.59 218.444 153.32 218.876 152.948L219.38 153.974C218.984 154.346 218.48 154.64 217.868 154.856C217.256 155.06 216.632 155.162 215.996 155.162ZM215.762 147.17C214.934 147.17 214.28 147.428 213.8 147.944C213.32 148.46 213.038 149.138 212.954 149.978H218.264C218.228 149.09 217.994 148.4 217.562 147.908C217.142 147.416 216.542 147.17 215.762 147.17ZM224.102 155L220.34 146.252H221.924L224.822 153.344L227.756 146.252H229.25L225.47 155H224.102ZM234.611 155.162C233.231 155.162 232.139 154.76 231.335 153.956C230.531 153.14 230.129 152.036 230.129 150.644C230.129 149.744 230.309 148.952 230.669 148.268C231.029 147.572 231.521 147.038 232.145 146.666C232.781 146.282 233.513 146.09 234.341 146.09C235.529 146.09 236.459 146.474 237.131 147.242C237.803 147.998 238.139 149.042 238.139 150.374V150.932H231.551C231.599 151.928 231.887 152.69 232.415 153.218C232.943 153.734 233.675 153.992 234.611 153.992C235.139 153.992 235.643 153.914 236.123 153.758C236.603 153.59 237.059 153.32 237.491 152.948L237.995 153.974C237.599 154.346 237.095 154.64 236.483 154.856C235.871 155.06 235.247 155.162 234.611 155.162ZM234.377 147.17C233.549 147.17 232.895 147.428 232.415 147.944C231.935 148.46 231.653 149.138 231.569 149.978H236.879C236.843 149.09 236.609 148.4 236.177 147.908C235.757 147.416 235.157 147.17 234.377 147.17ZM242.931 155.162C242.043 155.162 241.371 154.904 240.915 154.388C240.471 153.86 240.249 153.098 240.249 152.102V142.31H241.707V151.994C241.707 153.278 242.217 153.92 243.237 153.92C243.537 153.92 243.807 153.884 244.047 153.812L244.011 155.036C243.639 155.12 243.279 155.162 242.931 155.162ZM250.45 155V153.884L254.788 149.204C255.4 148.532 255.838 147.92 256.102 147.368C256.378 146.816 256.516 146.252 256.516 145.676C256.516 144.2 255.658 143.462 253.942 143.462C252.658 143.462 251.524 143.942 250.54 144.902L249.982 143.75C250.45 143.27 251.044 142.886 251.764 142.598C252.496 142.298 253.264 142.148 254.068 142.148C255.34 142.148 256.312 142.448 256.984 143.048C257.668 143.636 258.01 144.476 258.01 145.568C258.01 146.324 257.824 147.068 257.452 147.8C257.08 148.52 256.51 149.288 255.742 150.104L252.34 153.74H258.532V155H250.45ZM271.608 155.162C269.568 155.162 268.014 154.586 266.946 153.434C265.878 152.282 265.344 150.692 265.344 148.664C265.344 147.32 265.584 146.162 266.064 145.19C266.544 144.218 267.234 143.468 268.134 142.94C269.034 142.412 270.12 142.148 271.392 142.148C272.292 142.148 273.12 142.286 273.876 142.562C274.632 142.826 275.274 143.216 275.802 143.732L275.226 144.92C274.65 144.416 274.056 144.05 273.444 143.822C272.832 143.594 272.142 143.48 271.374 143.48C269.934 143.48 268.83 143.936 268.062 144.848C267.294 145.748 266.91 147.02 266.91 148.664C266.91 150.344 267.306 151.628 268.098 152.516C268.89 153.404 270.072 153.848 271.644 153.848C272.664 153.848 273.642 153.674 274.578 153.326V149.564H271.356V148.394H275.856V154.262C275.52 154.442 275.112 154.598 274.632 154.73C274.164 154.862 273.666 154.964 273.138 155.036C272.61 155.12 272.1 155.162 271.608 155.162ZM282.311 155.162C281.459 155.162 280.721 154.976 280.097 154.604C279.473 154.232 278.987 153.71 278.639 153.038C278.303 152.354 278.135 151.55 278.135 150.626C278.135 149.702 278.303 148.904 278.639 148.232C278.987 147.548 279.473 147.02 280.097 146.648C280.721 146.276 281.459 146.09 282.311 146.09C283.151 146.09 283.883 146.276 284.507 146.648C285.143 147.02 285.629 147.548 285.965 148.232C286.313 148.904 286.487 149.702 286.487 150.626C286.487 151.55 286.313 152.354 285.965 153.038C285.629 153.71 285.143 154.232 284.507 154.604C283.883 154.976 283.151 155.162 282.311 155.162ZM282.311 153.992C283.127 153.992 283.781 153.704 284.273 153.128C284.765 152.54 285.011 151.706 285.011 150.626C285.011 149.534 284.765 148.7 284.273 148.124C283.781 147.548 283.127 147.26 282.311 147.26C281.483 147.26 280.823 147.548 280.331 148.124C279.851 148.7 279.611 149.534 279.611 150.626C279.611 151.706 279.851 152.54 280.331 153.128C280.823 153.704 281.483 153.992 282.311 153.992ZM291.431 155.162C290.831 155.162 290.291 155.048 289.811 154.82C289.343 154.58 288.971 154.256 288.695 153.848C288.419 153.44 288.281 152.984 288.281 152.48C288.281 151.844 288.443 151.34 288.767 150.968C289.103 150.596 289.649 150.332 290.405 150.176C291.173 150.008 292.217 149.924 293.537 149.924H294.113V149.366C294.113 148.622 293.957 148.088 293.645 147.764C293.345 147.428 292.859 147.26 292.187 147.26C291.659 147.26 291.149 147.338 290.657 147.494C290.165 147.638 289.661 147.878 289.145 148.214L288.641 147.152C289.097 146.828 289.649 146.57 290.297 146.378C290.957 146.186 291.587 146.09 292.187 146.09C293.315 146.09 294.149 146.366 294.689 146.918C295.241 147.47 295.517 148.328 295.517 149.492V155H294.149V153.488C293.921 154.004 293.567 154.412 293.087 154.712C292.619 155.012 292.067 155.162 291.431 155.162ZM291.665 154.064C292.385 154.064 292.973 153.818 293.429 153.326C293.885 152.822 294.113 152.186 294.113 151.418V150.878H293.555C292.583 150.878 291.815 150.926 291.251 151.022C290.699 151.106 290.309 151.262 290.081 151.49C289.865 151.706 289.757 152.006 289.757 152.39C289.757 152.882 289.925 153.284 290.261 153.596C290.609 153.908 291.077 154.064 291.665 154.064ZM300.904 155.162C300.016 155.162 299.344 154.904 298.888 154.388C298.444 153.86 298.222 153.098 298.222 152.102V142.31H299.68V151.994C299.68 153.278 300.19 153.92 301.21 153.92C301.51 153.92 301.78 153.884 302.02 153.812L301.984 155.036C301.612 155.12 301.252 155.162 300.904 155.162Z" fill="#3A3A3A"/>
<rect x="31.5" y="275.646" width="136" height="55" fill="#FBFBFB" stroke="#EEEEEE"/>
<path d="M47.9834 307H46.7119V298.571L44.1621 299.508V298.359L47.7852 296.999H47.9834V307ZM57.9297 302.755C57.9297 304.236 57.6768 305.337 57.1709 306.057C56.665 306.777 55.8743 307.137 54.7988 307.137C53.737 307.137 52.9508 306.786 52.4404 306.084C51.93 305.378 51.6657 304.325 51.6475 302.926V301.237C51.6475 299.774 51.9004 298.688 52.4062 297.977C52.9121 297.266 53.7051 296.91 54.7852 296.91C55.8561 296.91 56.6445 297.254 57.1504 297.942C57.6562 298.626 57.916 299.683 57.9297 301.114V302.755ZM56.665 301.025C56.665 299.954 56.5146 299.175 56.2139 298.688C55.9131 298.195 55.4368 297.949 54.7852 297.949C54.138 297.949 53.6663 298.193 53.3701 298.681C53.0739 299.168 52.9212 299.918 52.9121 300.93V302.953C52.9121 304.029 53.0671 304.824 53.377 305.339C53.6914 305.849 54.1654 306.104 54.7988 306.104C55.4232 306.104 55.8857 305.863 56.1865 305.38C56.4919 304.897 56.6514 304.136 56.665 303.097V301.025Z" fill="#3A3A3A"/>
<path d="M32.566 267V254.31H34.042V259.926H41.656V254.31H43.132V267H41.656V261.204H34.042V267H32.566ZM45.8814 256.074V254.436H47.6814V256.074H45.8814ZM46.0614 267V258.252H47.5194V267H46.0614ZM54.115 270.402C53.359 270.402 52.645 270.3 51.973 270.096C51.313 269.904 50.725 269.61 50.209 269.214L50.695 268.152C51.235 268.536 51.769 268.812 52.297 268.98C52.837 269.148 53.419 269.232 54.043 269.232C55.771 269.232 56.635 268.344 56.635 266.568V265.02C56.383 265.572 55.987 266.01 55.447 266.334C54.919 266.646 54.313 266.802 53.629 266.802C52.825 266.802 52.129 266.616 51.541 266.244C50.953 265.872 50.497 265.362 50.173 264.714C49.861 264.054 49.705 263.292 49.705 262.428C49.705 261.564 49.861 260.808 50.173 260.16C50.497 259.5 50.953 258.99 51.541 258.63C52.129 258.27 52.825 258.09 53.629 258.09C54.313 258.09 54.919 258.246 55.447 258.558C55.987 258.87 56.383 259.296 56.635 259.836V258.252H58.057V266.37C58.057 267.714 57.721 268.722 57.049 269.394C56.389 270.066 55.411 270.402 54.115 270.402ZM53.899 265.614C54.739 265.614 55.405 265.326 55.897 264.75C56.389 264.174 56.635 263.4 56.635 262.428C56.635 261.456 56.389 260.688 55.897 260.124C55.405 259.548 54.739 259.26 53.899 259.26C53.071 259.26 52.411 259.548 51.919 260.124C51.427 260.688 51.181 261.456 51.181 262.428C51.181 263.4 51.427 264.174 51.919 264.75C52.411 265.326 53.071 265.614 53.899 265.614ZM60.7918 267V254.31H62.2498V259.692C62.5378 259.164 62.9398 258.768 63.4558 258.504C63.9838 258.228 64.5718 258.09 65.2198 258.09C67.2958 258.09 68.3338 259.242 68.3338 261.546V267H66.8758V261.636C66.8758 260.82 66.7138 260.226 66.3898 259.854C66.0778 259.47 65.5738 259.278 64.8778 259.278C64.0738 259.278 63.4318 259.53 62.9518 260.034C62.4838 260.526 62.2498 261.186 62.2498 262.014V267H60.7918ZM74.9643 267.162C73.5843 267.162 72.4923 266.76 71.6883 265.956C70.8843 265.14 70.4823 264.036 70.4823 262.644C70.4823 261.744 70.6623 260.952 71.0223 260.268C71.3823 259.572 71.8743 259.038 72.4983 258.666C73.1343 258.282 73.8663 258.09 74.6943 258.09C75.8823 258.09 76.8123 258.474 77.4843 259.242C78.1563 259.998 78.4923 261.042 78.4923 262.374V262.932H71.9043C71.9523 263.928 72.2403 264.69 72.7683 265.218C73.2963 265.734 74.0283 265.992 74.9643 265.992C75.4923 265.992 75.9963 265.914 76.4763 265.758C76.9563 265.59 77.4123 265.32 77.8443 264.948L78.3483 265.974C77.9523 266.346 77.4483 266.64 76.8363 266.856C76.2243 267.06 75.6003 267.162 74.9643 267.162ZM74.7303 259.17C73.9023 259.17 73.2483 259.428 72.7683 259.944C72.2883 260.46 72.0063 261.138 71.9223 261.978H77.2323C77.1963 261.09 76.9623 260.4 76.5303 259.908C76.1103 259.416 75.5103 259.17 74.7303 259.17ZM83.5544 267.162C82.8704 267.162 82.2224 267.066 81.6104 266.874C80.9984 266.682 80.4944 266.412 80.0984 266.064L80.5664 265.038C80.9984 265.386 81.4724 265.644 81.9884 265.812C82.5164 265.968 83.0504 266.046 83.5904 266.046C84.2744 266.046 84.7904 265.92 85.1384 265.668C85.4864 265.416 85.6604 265.074 85.6604 264.642C85.6604 264.306 85.5464 264.042 85.3184 263.85C85.0904 263.646 84.7304 263.49 84.2384 263.382L82.6004 263.022C81.1124 262.698 80.3684 261.93 80.3684 260.718C80.3684 259.926 80.6804 259.29 81.3044 258.81C81.9404 258.33 82.7684 258.09 83.7884 258.09C84.3884 258.09 84.9584 258.186 85.4984 258.378C86.0504 258.558 86.5064 258.828 86.8664 259.188L86.3804 260.214C86.0324 259.89 85.6244 259.644 85.1564 259.476C84.7004 259.296 84.2444 259.206 83.7884 259.206C83.1164 259.206 82.6064 259.338 82.2584 259.602C81.9104 259.866 81.7364 260.214 81.7364 260.646C81.7364 261.318 82.1804 261.75 83.0684 261.942L84.7064 262.284C85.4744 262.452 86.0564 262.722 86.4524 263.094C86.8484 263.454 87.0464 263.946 87.0464 264.57C87.0464 265.374 86.7284 266.01 86.0924 266.478C85.4564 266.934 84.6104 267.162 83.5544 267.162ZM92.6905 267.162C91.6585 267.162 90.8845 266.892 90.3685 266.352C89.8525 265.8 89.5945 265.008 89.5945 263.976V259.386H87.8845V258.252H89.5945V255.57H91.0525V258.252H93.8245V259.386H91.0525V263.832C91.0525 264.516 91.1965 265.038 91.4845 265.398C91.7725 265.746 92.2405 265.92 92.8885 265.92C93.0805 265.92 93.2725 265.896 93.4645 265.848C93.6565 265.8 93.8305 265.752 93.9865 265.704L94.2385 266.82C94.0825 266.904 93.8545 266.982 93.5545 267.054C93.2545 267.126 92.9665 267.162 92.6905 267.162ZM100.295 267V254.31H101.771V265.704H108.233V267H100.295ZM113.724 267.162C112.344 267.162 111.252 266.76 110.448 265.956C109.644 265.14 109.242 264.036 109.242 262.644C109.242 261.744 109.422 260.952 109.782 260.268C110.142 259.572 110.634 259.038 111.258 258.666C111.894 258.282 112.626 258.09 113.454 258.09C114.642 258.09 115.572 258.474 116.244 259.242C116.916 259.998 117.252 261.042 117.252 262.374V262.932H110.664C110.712 263.928 111 264.69 111.528 265.218C112.056 265.734 112.788 265.992 113.724 265.992C114.252 265.992 114.756 265.914 115.236 265.758C115.716 265.59 116.172 265.32 116.604 264.948L117.108 265.974C116.712 266.346 116.208 266.64 115.596 266.856C114.984 267.06 114.36 267.162 113.724 267.162ZM113.49 259.17C112.662 259.17 112.008 259.428 111.528 259.944C111.048 260.46 110.766 261.138 110.682 261.978H115.992C115.956 261.09 115.722 260.4 115.29 259.908C114.87 259.416 114.27 259.17 113.49 259.17ZM121.831 267L118.069 258.252H119.653L122.551 265.344L125.485 258.252H126.979L123.199 267H121.831ZM132.339 267.162C130.959 267.162 129.867 266.76 129.063 265.956C128.259 265.14 127.857 264.036 127.857 262.644C127.857 261.744 128.037 260.952 128.397 260.268C128.757 259.572 129.249 259.038 129.873 258.666C130.509 258.282 131.241 258.09 132.069 258.09C133.257 258.09 134.187 258.474 134.859 259.242C135.531 259.998 135.867 261.042 135.867 262.374V262.932H129.279C129.327 263.928 129.615 264.69 130.143 265.218C130.671 265.734 131.403 265.992 132.339 265.992C132.867 265.992 133.371 265.914 133.851 265.758C134.331 265.59 134.787 265.32 135.219 264.948L135.723 265.974C135.327 266.346 134.823 266.64 134.211 266.856C133.599 267.06 132.975 267.162 132.339 267.162ZM132.105 259.17C131.277 259.17 130.623 259.428 130.143 259.944C129.663 260.46 129.381 261.138 129.297 261.978H134.607C134.571 261.09 134.337 260.4 133.905 259.908C133.485 259.416 132.885 259.17 132.105 259.17ZM140.659 267.162C139.771 267.162 139.099 266.904 138.643 266.388C138.199 265.86 137.977 265.098 137.977 264.102V254.31H139.435V263.994C139.435 265.278 139.945 265.92 140.965 265.92C141.265 265.92 141.535 265.884 141.775 265.812L141.739 267.036C141.367 267.12 141.007 267.162 140.659 267.162Z" fill="#3A3A3A"/>
<defs>
<filter id="filter0_d" x="0" y="0" width="376" height="380" filterUnits="userSpaceOnUse" color-interpolation-filters="sRGB">
<feFlood flood-opacity="0" result="BackgroundImageFix"/>
<feColorMatrix in="SourceAlpha" type="matrix" values="0 0 0 0 0 0 0 0 0 0 0 0 0 0 0 0 0 0 127 0"/>
<feOffset dx="4" dy="4"/>
<feGaussianBlur stdDeviation="2"/>
<feColorMatrix type="matrix" values="0 0 0 0 0 0 0 0 0 0 0 0 0 0 0 0 0 0 0.25 0"/>
<feBlend mode="normal" in2="BackgroundImageFix" result="effect1_dropShadow"/>
<feBlend mode="normal" in="SourceGraphic" in2="effect1_dropShadow" result="shape"/>
</filter>
</defs>
</svg>
