<svg width="100" height="100" viewBox="0 0 100 100" fill="none" xmlns="http://www.w3.org/2000/svg">
<path d="M84.6778 29.1778L70.8222 15.3222C69.3354 13.8353 67.3187 13 65.2159 13H20.9286C16.5497 13 13 16.5497 13 20.9286V79.0714C13 83.4503 16.5497 87 20.9286 87H79.0714C83.4503 87 87 83.4503 87 79.0714V34.7841C87 32.6813 86.1647 30.6646 84.6778 29.1778V29.1778ZM50 76.4286C44.1616 76.4286 39.4286 71.6955 39.4286 65.8571C39.4286 60.0187 44.1616 55.2857 50 55.2857C55.8384 55.2857 60.5714 60.0187 60.5714 65.8571C60.5714 71.6955 55.8384 76.4286 50 76.4286ZM65.8571 26.1284V42.7321C65.8571 43.8268 64.9696 44.7143 63.875 44.7143H25.5536C24.4589 44.7143 23.5714 43.8268 23.5714 42.7321V25.5536C23.5714 24.4589 24.4589 23.5714 25.5536 23.5714H63.3002C63.8259 23.5714 64.3301 23.7802 64.7017 24.152L65.2765 24.7269C65.4606 24.9109 65.6067 25.1294 65.7063 25.3699C65.8059 25.6103 65.8572 25.8681 65.8571 26.1284V26.1284Z" fill="#3A3A3A"/>
</svg>
