<svg width="74" height="57" viewBox="0 0 74 57" fill="none" xmlns="http://www.w3.org/2000/svg">
<path d="M72.9758 30.6912L48.3079 55.359C46.1055 57.5615 42.2878 56.0198 42.2878 52.8629V38.767H22.3186C20.3657 38.767 18.7946 37.1958 18.7946 35.243V21.147C18.7946 19.1942 20.3657 17.623 22.3186 17.623H42.2878V3.52711C42.2878 0.384888 46.0908 -1.17154 48.3079 1.03095L72.9758 25.6988C74.3414 27.0791 74.3414 29.3109 72.9758 30.6912ZM28.1919 54.6249V48.7516C28.1919 47.7825 27.399 46.9896 26.4299 46.9896H14.0959C11.497 46.9896 9.39729 44.8899 9.39729 42.2909V14.0991C9.39729 11.5001 11.497 9.40042 14.0959 9.40042H26.4299C27.399 9.40042 28.1919 8.60752 28.1919 7.63842V1.76512C28.1919 0.796019 27.399 0.00312292 26.4299 0.00312292H14.0959C6.31381 0.00312292 0 6.31693 0 14.0991V42.2909C0 50.0731 6.31381 56.3869 14.0959 56.3869H26.4299C27.399 56.3869 28.1919 55.594 28.1919 54.6249Z" fill="#3A3A3A"/>
</svg>
