<svg width="65" height="74" viewBox="0 0 65 74" fill="none" xmlns="http://www.w3.org/2000/svg">
<path d="M32.5 37C42.7578 37 51.0714 28.7184 51.0714 18.5C51.0714 8.28164 42.7578 0 32.5 0C22.2422 0 13.9286 8.28164 13.9286 18.5C13.9286 28.7184 22.2422 37 32.5 37ZM45.5 41.625H43.077C39.856 43.0992 36.2723 43.9375 32.5 43.9375C28.7277 43.9375 25.1585 43.0992 21.923 41.625H19.5C8.73437 41.625 0 50.3258 0 61.05V67.0625C0 70.8926 3.11942 74 6.96429 74H58.0357C61.8806 74 65 70.8926 65 67.0625V61.05C65 50.3258 56.2656 41.625 45.5 41.625Z" fill="#3A3A3A"/>
</svg>
